<svg viewBox="0 0 24 24" fill="none" xmlns="http://www.w3.org/2000/svg">
<path fill-rule="evenodd" clip-rule="evenodd" d="M6.08393 6.00116C6.12174 5.99934 6.15992 5.99965 6.19834 6.00219C8.07055 6.126 9.80164 7.05892 10.9343 8.53351C11.2707 8.9715 11.1884 9.59929 10.7504 9.93572C10.3124 10.2721 9.68462 10.1898 9.34819 9.75182C8.57344 8.74317 7.38982 8.09851 6.11115 8.00102C3.81332 8.01261 2 9.82287 2 12.0005C2 14.1768 3.82625 16 6.13333 16C7.49893 16 8.70832 15.0562 9.66336 13.8724C10.1232 13.3024 10.4825 12.727 10.7273 12.2916C10.8491 12.075 10.9409 11.896 11.0012 11.7735C11.0313 11.7124 11.0535 11.6655 11.0675 11.6354L11.0823 11.603L11.0849 11.5972C11.0848 11.5975 11.0847 11.5977 12 12.0005C12.9153 12.4033 12.9152 12.4036 12.915 12.4039L12.9149 12.4041L12.9149 12.4041L12.9147 12.4046L12.9147 12.4046L12.9139 12.4064L12.9117 12.4113L12.9049 12.4266C12.8992 12.4392 12.8913 12.4563 12.8813 12.4779C12.8613 12.521 12.8326 12.5815 12.7954 12.6571C12.7211 12.808 12.6124 13.0196 12.4706 13.2718C12.1884 13.7738 11.7685 14.4482 11.22 15.1281C10.1583 16.4441 8.4344 18 6.13333 18C2.7693 18 0 15.3284 0 12.0005C0 8.67819 2.74346 6.02707 6.08393 6.00116ZM17.8994 15.9999C20.1826 15.9827 22 14.1652 22 12.0005C22 9.81709 20.1665 8.00097 17.8667 8.00097C16.5011 8.00097 15.2917 8.94479 14.3366 10.1286C13.8768 10.6986 13.5175 11.274 13.2727 11.7094C13.1509 11.926 13.0591 12.105 12.9988 12.2274C12.9687 12.2886 12.9465 12.3355 12.9325 12.3656L12.9177 12.3979L12.9153 12.4033L12.9151 12.4038C12.9152 12.4035 12.9153 12.4033 12 12.0005C11.0847 11.5977 11.0848 11.5974 11.085 11.5971L11.0851 11.5969L11.0851 11.5968L11.0853 11.5964L11.0853 11.5964L11.0861 11.5946L11.0883 11.5896L11.0951 11.5744C11.1008 11.5618 11.1087 11.5446 11.1187 11.5231C11.1387 11.48 11.1674 11.4194 11.2046 11.3439C11.2789 11.193 11.3876 10.9814 11.5294 10.7292C11.8116 10.2272 12.2315 9.55273 12.78 8.87284C13.8417 7.5569 15.5656 6.00097 17.8667 6.00097C21.2184 6.00097 24 8.66061 24 12.0005C24 15.3296 21.2197 18 17.8667 18C17.8448 18 17.8229 17.9993 17.8011 17.9979C15.9245 17.8745 14.189 16.9548 13.0617 15.4721C12.7275 15.0325 12.8129 14.4051 13.2526 14.0708C13.6922 13.7366 14.3196 13.822 14.6538 14.2617C15.417 15.2655 16.6013 15.9052 17.8994 15.9999Z" fill="#101828"/>
</svg>
