<svg viewBox="0 0 24 24" fill="none" xmlns="http://www.w3.org/2000/svg">
<path fill-rule="evenodd" clip-rule="evenodd" d="M2 3C2 2.44772 2.44772 2 3 2H21C21.5523 2 22 2.44772 22 3C22 3.55228 21.5523 4 21 4H3C2.44772 4 2 3.55228 2 3ZM7.99686 8L16.0031 8C16.4684 8 17.3276 8 18.1187 8.01933C18.514 8.02899 18.9041 8.04372 19.2248 8.06681C19.3844 8.07829 19.539 8.09269 19.6745 8.11158C19.7802 8.12634 19.9726 8.15569 20.1481 8.22836C20.8831 8.53284 21.4672 9.11687 21.7716 9.85195C21.9066 10.1779 21.9561 10.5078 21.9787 10.8376C22 11.1509 22 11.5294 22 11.968V12.032C22 12.4706 22 12.8491 21.9787 13.1624C21.9561 13.4922 21.9066 13.8221 21.7716 14.1481C21.4672 14.8831 20.8831 15.4672 20.1481 15.7716C19.9726 15.8443 19.7802 15.8737 19.6745 15.8884C19.539 15.9073 19.3844 15.9217 19.2248 15.9332C18.9041 15.9563 18.514 15.971 18.1187 15.9807C17.3276 16 16.4685 16 16.0031 16L7.99686 16C7.53151 16 6.6724 16 5.88127 15.9807C5.48602 15.971 5.09594 15.9563 4.77519 15.9332C4.61565 15.9217 4.46098 15.9073 4.32554 15.8884C4.21977 15.8737 4.02739 15.8443 3.85195 15.7716C3.11687 15.4672 2.53284 14.8831 2.22836 14.148C2.09336 13.8221 2.04386 13.4922 2.02135 13.1624C1.99998 12.8491 1.99999 12.4706 2 12.032V11.968C1.99999 11.5294 1.99998 11.1509 2.02135 10.8376C2.04386 10.5078 2.09336 10.1779 2.22836 9.85195C2.53284 9.11687 3.11687 8.53284 3.85195 8.22836C4.02739 8.15569 4.21977 8.12634 4.32554 8.11158C4.46098 8.09269 4.61565 8.07829 4.77519 8.06681C5.09594 8.04372 5.48602 8.02899 5.88127 8.01933C6.67239 8 7.53151 8 7.99686 8ZM4.56999 10.0972C4.34727 10.2032 4.17099 10.3883 4.07612 10.6173C4.05888 10.6589 4.03227 10.7458 4.01671 10.9738C4.00054 11.2107 4 11.5204 4 12C4 12.4796 4.00054 12.7893 4.01671 13.0262C4.03227 13.2542 4.05888 13.3411 4.07612 13.3827C4.17099 13.6117 4.34727 13.7968 4.56999 13.9028C4.57866 13.9042 4.58925 13.9058 4.60192 13.9076C4.67532 13.9178 4.78089 13.9284 4.91878 13.9384C5.19288 13.9581 5.54645 13.9719 5.93011 13.9813C6.69503 14 7.53273 14 8 14L16 14C16.4673 14 17.305 14 18.0699 13.9813C18.4536 13.9719 18.8071 13.9581 19.0812 13.9384C19.2191 13.9284 19.3247 13.9178 19.3981 13.9076C19.4108 13.9058 19.4213 13.9042 19.43 13.9028C19.6527 13.7968 19.829 13.6117 19.9239 13.3827C19.9411 13.3411 19.9677 13.2542 19.9833 13.0262C19.9995 12.7893 20 12.4796 20 12C20 11.5204 19.9995 11.2107 19.9833 10.9738C19.9677 10.7458 19.9411 10.6589 19.9239 10.6173C19.829 10.3883 19.6527 10.2032 19.43 10.0972C19.4213 10.0958 19.4108 10.0942 19.3981 10.0924C19.3247 10.0822 19.2191 10.0716 19.0812 10.0616C18.8071 10.0419 18.4536 10.0281 18.0699 10.0187C17.305 10 16.4673 10 16 10H8C7.53273 10 6.69503 10 5.93011 10.0187C5.54645 10.0281 5.19288 10.0419 4.91878 10.0616C4.78089 10.0716 4.67533 10.0822 4.60192 10.0924C4.58925 10.0942 4.57866 10.0958 4.56999 10.0972ZM2 21C2 20.4477 2.44772 20 3 20H21C21.5523 20 22 20.4477 22 21C22 21.5523 21.5523 22 21 22H3C2.44772 22 2 21.5523 2 21Z" fill="#101828"/>
</svg>
