<svg viewBox="0 0 24 24" xmlns="http://www.w3.org/2000/svg"><path fill="none" stroke="#000" stroke-linecap="round" stroke-linejoin="round" stroke-width="2" d="M15 9h.01M15 15c3.31 0 6-2.69 6-6 0-3.32-2.69-6-6-6 -3.32 0-6 2.68-6 6 0 .27.01.54.05.8 .05.43.08.65.06.78 -.03.14-.05.22-.12.34 -.07.12-.19.24-.43.47L3.44 16.5c-.18.17-.26.25-.33.36 -.06.08-.1.18-.12.28 -.03.11-.03.23-.03.48v1.73c0 .56 0 .84.1 1.05 .09.18.24.34.43.43 .21.1.49.1 1.05.1h1.73c.24 0 .36 0 .48-.03 .1-.03.19-.07.28-.12 .1-.07.18-.15.36-.33l5.11-5.12c.23-.24.35-.36.47-.43 .12-.08.2-.1.34-.12 .13-.02.35 0 .78.06 .26.03.53.05.8.05Z"/></svg>