<svg viewBox="0 0 24 24" xmlns="http://www.w3.org/2000/svg"><path fill="none" stroke="#000" stroke-linecap="round" stroke-linejoin="round" stroke-width="2" d="M16 7.99v5c0 .79.31 1.55.87 2.12 .56.56 1.32.87 2.12.87 .79 0 1.55-.32 2.12-.88 .56-.57.87-1.33.87-2.13v-1c-.01-2.26-.77-4.45-2.17-6.22 -1.41-1.77-3.37-3.01-5.57-3.53s-4.51-.27-6.55.69c-2.05.96-3.7 2.59-4.7 4.61 -1 2.02-1.29 4.32-.81 6.53 .47 2.2 1.68 4.18 3.42 5.62 1.74 1.43 3.92 2.23 6.17 2.27 2.25.03 4.46-.69 6.25-2.06m-2.08-7.94c0 2.2-1.8 4-4 4 -2.21 0-4-1.8-4-4 0-2.21 1.79-4.01 4-4.01 2.2 0 4 1.79 4 4Z"/></svg>