<svg viewBox="0 0 24 24" fill="none" xmlns="http://www.w3.org/2000/svg">
<path fill-rule="evenodd" clip-rule="evenodd" d="M19 9.5C17.8954 9.5 17 10.3954 17 11.5C17 12.6046 17.8954 13.5 19 13.5C20.1046 13.5 21 12.6046 21 11.5C21 10.3954 20.1046 9.5 19 9.5ZM15.126 10.5C15.5701 8.77477 17.1362 7.5 19 7.5C21.2091 7.5 23 9.29086 23 11.5C23 13.7091 21.2091 15.5 19 15.5C17.1362 15.5 15.5701 14.2252 15.126 12.5H8.87398C8.42994 14.2252 6.86384 15.5 5 15.5C2.79086 15.5 1 13.7091 1 11.5C1 9.29086 2.79086 7.5 5 7.5C6.86384 7.5 8.42994 8.77477 8.87398 10.5H15.126ZM5 9.5C3.89543 9.5 3 10.3954 3 11.5C3 12.6046 3.89543 13.5 5 13.5C6.10457 13.5 7 12.6046 7 11.5C7 10.3954 6.10457 9.5 5 9.5Z" fill="#101828"/>
</svg>
