<svg viewBox="0 0 24 24" xmlns="http://www.w3.org/2000/svg"><path fill="none" stroke="#000" stroke-linecap="round" stroke-linejoin="round" stroke-width="2" d="M8 8h.01M2 5.2v4.47c0 .48 0 .73.05.96 .04.2.12.39.23.57 .12.2.29.37.64.72l7.66 7.66c1.18 1.18 1.78 1.78 2.46 2 .6.19 1.25.19 1.85 0 .68-.23 1.27-.82 2.46-2.01l2.21-2.22c1.18-1.19 1.78-1.79 2-2.47 .19-.61.19-1.26 0-1.86 -.23-.69-.82-1.28-2.01-2.47l-7.67-7.67c-.35-.35-.52-.52-.73-.65 -.18-.11-.38-.2-.58-.24 -.24-.06-.48-.06-.97-.06H5.12c-1.13 0-1.69 0-2.11.21 -.38.19-.69.49-.88.87 -.22.42-.22.98-.22 2.1ZM8.5 8c0 .27-.23.5-.5.5 -.28 0-.5-.23-.5-.5 0-.28.22-.5.5-.5 .27 0 .5.22.5.5Z"/></svg>