<svg viewBox="0 0 24 24" xmlns="http://www.w3.org/2000/svg"><path fill="none" stroke="#000" stroke-linecap="round" stroke-linejoin="round" stroke-width="2" d="M12 16v-4m0-4.01h.01M3 7.93v8.11c0 .34 0 .51.05.66 .04.13.11.25.21.36 .1.11.25.2.55.36l7.4 4.11c.28.15.42.23.57.26 .13.02.27.02.4 0 .15-.04.29-.11.57-.27l7.4-4.12c.29-.17.44-.25.55-.37 .09-.11.16-.23.21-.37 .05-.16.05-.33.05-.67V7.87c0-.35 0-.52-.06-.67 -.05-.14-.12-.26-.22-.37 -.11-.12-.26-.21-.56-.37l-7.4-4.12c-.29-.16-.43-.24-.58-.27 -.14-.03-.27-.03-.41 0 -.16.03-.3.1-.58.26L3.74 6.44c-.3.16-.45.24-.56.36 -.1.1-.17.22-.22.36 -.06.15-.06.32-.06.66Z"/></svg>