<svg viewBox="0 0 24 24" xmlns="http://www.w3.org/2000/svg"><path d="M20.01 6.4l-8.5 4.72c-.49.26-.66.87-.39 1.35 .26.48.87.65 1.35.38l8.5-4.73c.48-.27.65-.88.38-1.36 -.27-.49-.88-.66-1.36-.39Zm-7.53 4.72L3.97 6.39c-.49-.27-1.1-.1-1.36.38 -.27.48-.1 1.09.38 1.35l8.5 4.72c.48.26 1.09.09 1.35-.39 .26-.49.09-1.1-.39-1.36Zm-1.49.87v9.5c0 .55.44 1 1 1 .55 0 1-.45 1-1v-9.5c0-.56-.45-1-1-1 -.56 0-1 .44-1 1Zm11 4.05V7.92c0-.56-.01-.71-.11-.99 -.09-.27-.24-.52-.43-.73 -.2-.22-.33-.3-.81-.57l-7.4-4.12c-.47-.26-.59-.32-.86-.38s-.55-.06-.81-.01c-.03 0-.03 0-.06.01 -.25.06-.37.11-.81.35L3.29 5.59c-.33.18-.43.23-.57.34 -.09.06-.17.13-.25.21 -.2.2-.34.45-.43.72 -.1.27-.11.42-.11.98v8.11c0 .55 0 .7.1.98 .08.27.23.51.42.72 .19.21.32.29.8.56l7.4 4.11c.45.25.58.31.85.37 .26.05.54.05.8-.01 .27-.06.4-.12.85-.38l7.39-4.12c.48-.27.6-.35.8-.57 .19-.21.33-.46.42-.73 .09-.28.1-.43.1-.99Zm-2 0c0 .3-.01.36 0 .35 -.01 0 0 0 0 0 0-.01-.05.02-.31.17l-7.41 4.11c-.25.13-.31.16-.3.16 0-.01 0-.01 0 0 .01 0-.05-.03-.3-.17l-7.41-4.12c-.27-.15-.32-.19-.31-.18 -.01-.01-.01-.01-.01-.01 0 .01 0-.06 0-.36V7.87c0-.31 0-.37 0-.36 -.01 0-.01 0 0 0 -.02.01-.02.01-.03.02 .03-.03.1-.07.33-.2l7.4-4.12c.24-.14.3-.17.3-.17 -.01 0-.01 0-.01 0 0-.01-.01-.01 0 0 -.02-.01.04.02.29.16l7.4 4.11c.26.14.31.18.3.17 -.01-.01-.01-.01-.01-.01 -.01-.02 0 .05 0 .35v8.11Z"/></svg>