<svg viewBox="0 0 24 24" fill="none" xmlns="http://www.w3.org/2000/svg">
<path fill-rule="evenodd" clip-rule="evenodd" d="M12 3C7.02944 3 3 7.02944 3 12C3 16.9706 7.02944 21 12 21C16.9706 21 21 16.9706 21 12C21 7.02944 16.9706 3 12 3ZM1 12C1 5.92487 5.92487 1 12 1C18.0751 1 23 5.92487 23 12C23 18.0751 18.0751 23 12 23C5.92487 23 1 18.0751 1 12ZM9.82589 10.0834C9.26014 10.7521 9 11.5305 9 12C9 13.5314 10.1324 15 12 15C13.8676 15 15 13.5314 15 12C15 10.4686 13.8676 9 12 9C11.1113 9 10.3715 9.43857 9.82589 10.0834ZM8.29911 8.79156C9.12845 7.81143 10.3887 7 12 7C15.1324 7 17 9.5314 17 12C17 14.4686 15.1324 17 12 17C8.86759 17 7 14.4686 7 12C7 10.9695 7.48986 9.74795 8.29911 8.79156Z" fill="#101828"/>
</svg>
