<svg viewBox="0 0 24 24" xmlns="http://www.w3.org/2000/svg"><path fill="none" stroke="#000" stroke-linecap="round" stroke-linejoin="round" stroke-width="2" d="M2 12l9.64 4.82c.13.06.19.09.26.11 .06.01.12.01.18 0 .06-.02.13-.05.26-.12l9.64-4.83m-20 5l9.64 4.82c.13.06.19.09.26.11 .06.01.12.01.18 0 .06-.02.13-.05.26-.12l9.64-4.83m-20-10.01l9.64-4.83c.13-.07.19-.1.26-.12 .06-.02.12-.02.18 0 .06.01.13.04.26.11l9.64 4.82 -9.65 4.82c-.14.06-.2.09-.27.11 -.07.01-.13.01-.19 0 -.07-.02-.14-.05-.27-.12L1.91 6.91Z"/></svg>