<svg viewBox="0 0 24 24" xmlns="http://www.w3.org/2000/svg"><path fill="none" stroke="#000" stroke-linecap="round" stroke-linejoin="round" stroke-width="2" d="M10.5 2c-.68 0-1.09.04-1.41.21 -.38.19-.69.49-.88.87 -.17.32-.21.73-.22 1.4m11.49-2.5c.67 0 1.08.04 1.4.21 .37.19.68.49.87.87 .16.32.2.73.21 1.4m0 9c-.01.67-.05 1.08-.22 1.4 -.2.37-.5.68-.88.87 -.33.16-.74.2-1.41.21m2.5-8v2m-8-8h1.99m-10.8 20h7.6c1.12 0 1.68 0 2.1-.22 .37-.2.68-.5.87-.88 .21-.43.21-.99.21-2.11v-7.6c0-1.13 0-1.69-.22-2.11 -.2-.38-.5-.69-.88-.88 -.43-.22-.99-.22-2.11-.22h-7.6c-1.13 0-1.69 0-2.11.21 -.38.19-.69.49-.88.87 -.22.42-.22.98-.22 2.1v7.6c0 1.12 0 1.68.21 2.1 .19.37.49.68.87.87 .42.21.98.21 2.1.21Z"/></svg>