<svg viewBox="0 0 24 24" fill="none" xmlns="http://www.w3.org/2000/svg">
<path fill-rule="evenodd" clip-rule="evenodd" d="M5.86242 0.999952C5.90762 0.999976 5.95347 1 6 1C6.55229 1 7 1.44772 7 2C7 2.55229 6.55229 3 6 3C5.00565 3 4.70464 3.00859 4.48237 3.06815C3.79218 3.25308 3.25309 3.79218 3.06815 4.48236C3.00859 4.70464 3.00001 5.00565 3.00001 6C3.00001 6.55229 2.55229 7 2 7C1.44772 7 1 6.55229 1 6C1 5.95346 0.99998 5.90761 0.999956 5.86242C0.999525 5.06704 0.999205 4.47638 1.1363 3.96473C1.50617 2.58436 2.58436 1.50617 3.96473 1.1363C4.47638 0.999201 5.06704 0.999521 5.86242 0.999952ZM19.5176 3.06815C19.2954 3.00859 18.9944 3 18 3C17.4477 3 17 2.55229 17 2C17 1.44772 17.4477 1 18 1C18.0465 1 18.0924 0.999976 18.1376 0.999952C18.933 0.999521 19.5236 0.999201 20.0353 1.1363C21.4156 1.50617 22.4938 2.58436 22.8637 3.96473C23.0008 4.47638 23.0005 5.06704 23.0001 5.86243C23 5.90762 23 5.95347 23 6C23 6.55229 22.5523 7 22 7C21.4477 7 21 6.55229 21 6C21 5.00565 20.9914 4.70464 20.9319 4.48236C20.7469 3.79218 20.2078 3.25308 19.5176 3.06815ZM9 2C9 1.44772 9.44772 1 10 1H14C14.5523 1 15 1.44772 15 2C15 2.55229 14.5523 3 14 3H10C9.44772 3 9 2.55229 9 2ZM2 9C2.55229 9 3.00001 9.44772 3.00001 10V14C3.00001 14.5523 2.55229 15 2 15C1.44772 15 1 14.5523 1 14V10C1 9.44772 1.44772 9 2 9ZM22 9C22.5523 9 23 9.44772 23 10V14C23 14.5523 22.5523 15 22 15C21.4477 15 21 14.5523 21 14V10C21 9.44772 21.4477 9 22 9ZM2 17C2.55229 17 3.00001 17.4477 3.00001 18C3.00001 18.9944 3.00859 19.2954 3.06815 19.5176C3.25309 20.2078 3.79218 20.7469 4.48237 20.9319C4.70465 20.9914 5.00565 21 6 21C6.55229 21 7 21.4477 7 22C7 22.5523 6.55229 23 6 23C5.95347 23 5.90762 23 5.86243 23.0001C5.06704 23.0005 4.47638 23.0008 3.96473 22.8637C2.58436 22.4938 1.50617 21.4156 1.1363 20.0353C0.999205 19.5236 0.999525 18.933 0.999956 18.1376C0.99998 18.0924 1 18.0465 1 18C1 17.4477 1.44772 17 2 17ZM22 17C22.5523 17 23 17.4477 23 18C23 18.0465 23 18.0924 23.0001 18.1376C23.0005 18.933 23.0008 19.5236 22.8637 20.0353C22.4938 21.4156 21.4156 22.4938 20.0353 22.8637C19.5236 23.0008 18.933 23.0005 18.1376 23.0001C18.0924 23 18.0465 23 18 23C17.4477 23 17 22.5523 17 22C17 21.4477 17.4477 21 18 21C18.9944 21 19.2954 20.9914 19.5176 20.9319C20.2078 20.7469 20.7469 20.2078 20.9319 19.5176C20.9914 19.2954 21 18.9944 21 18C21 17.4477 21.4477 17 22 17ZM9.4 22C9.4 21.4477 9.84772 21 10.4 21H14C14.5523 21 15 21.4477 15 22C15 22.5523 14.5523 23 14 23H10.4C9.84772 23 9.4 22.5523 9.4 22Z" fill="#101828"/>
</svg>
