<svg viewBox="0 0 24 24" xmlns="http://www.w3.org/2000/svg"><path fill="none" stroke="#000" stroke-linecap="round" stroke-linejoin="round" stroke-width="2" d="M17.11 15.35c-.28.3-.56.6-.86.9 -4.3 4.29-9.68 5.87-12.03 3.53 -1.61-1.61-1.37-4.65.32-7.78m2.32-3.3c.28-.33.57-.64.88-.95 4.29-4.3 9.67-5.88 12.02-3.54 1.6 1.6 1.36 4.64-.33 7.78m-3.21-4.25c4.29 4.29 5.87 9.67 3.53 12.02 -2.35 2.34-7.73.76-12.03-3.54 -4.3-4.3-5.88-9.68-3.54-12.03 2.34-2.35 7.72-.77 12.02 3.53Zm-3.27 4.22c0 .55-.45 1-1 1 -.56 0-1-.45-1-1 0-.56.44-1 1-1 .55 0 1 .44 1 1Z"/></svg>