<svg viewBox="0 0 24 24" fill="none" xmlns="http://www.w3.org/2000/svg">
<path fill-rule="evenodd" clip-rule="evenodd" d="M5 2.5C5 1.94772 5.44772 1.5 6 1.5H18C18.5523 1.5 19 1.94772 19 2.5C19 3.05228 18.5523 3.5 18 3.5H6C5.44772 3.5 5 3.05228 5 2.5ZM3 6.5C3 5.94772 3.44772 5.5 4 5.5H20C20.5523 5.5 21 5.94772 21 6.5C21 7.05228 20.5523 7.5 20 7.5H4C3.44772 7.5 3 7.05228 3 6.5ZM1 12C1 10.6193 2.11929 9.5 3.5 9.5H20.5C21.8807 9.5 23 10.6193 23 12V20C23 21.3807 21.8807 22.5 20.5 22.5H3.5C2.11929 22.5 1 21.3807 1 20V12ZM3.5 11.5C3.22386 11.5 3 11.7239 3 12V20C3 20.2761 3.22386 20.5 3.5 20.5H20.5C20.7761 20.5 21 20.2761 21 20V12C21 11.7239 20.7761 11.5 20.5 11.5H3.5Z" fill="#101828"/>
</svg>
