<svg width="40" height="40" viewBox="0 0 40 40" fill="none" xmlns="http://www.w3.org/2000/svg">
<path d="M8.9 1.10017L1.1 8.90139C0.39375 9.60775 0 10.5579 0 11.5518V38.1247C0 39.1624 0.8375 40 1.875 40H38.125C39.1625 40 40 39.1624 40 38.1247V1.87529C40 0.837631 39.1625 0 38.125 0H11.5562C10.5625 0 9.60625 0.393812 8.90625 1.10017H8.9Z" fill="url(#paint0_radial_117_9708)"/>
<path d="M9.10713 1.60017H9.11468L9.2614 1.45212C9.86638 0.84164 10.6943 0.5 11.5562 0.5H38.125C38.8863 0.5 39.5 1.1137 39.5 1.87529V38.1247C39.5 38.8863 38.8863 39.5 38.125 39.5H1.875C1.11372 39.5 0.5 38.8863 0.5 38.1247V11.5518C0.5 10.6909 0.840778 9.86781 1.45358 9.25492L9.10713 1.60017Z" stroke="white" stroke-opacity="0.25"/>
<path d="M28.3014 26.3536H25.4056V14.7H33.1249V17.4137H28.3014V19.4932H32.8476V22.1394H28.3014V26.3541V26.3536Z" fill="white"/>
<path opacity="0.05" d="M24.6417 21.4627H27.512C27.0873 24.4289 24.5938 26.3905 21.5728 26.3905C18.2646 26.3905 15.5712 23.9107 15.5712 20.5713C15.5642 19.7947 15.7148 19.0248 16.0136 18.3084C16.3125 17.5919 16.7534 16.9439 17.3096 16.4037C18.4513 15.2947 19.9837 14.6834 21.5728 14.7031C24.5659 14.7031 27.129 16.6799 27.4935 19.5986H24.6261C23.7639 16.2925 18.3917 16.6157 18.3917 20.5713C18.3917 24.5273 23.8312 24.8187 24.6417 21.4637V21.4627Z" fill="#002447"/>
<path d="M24.0543 21.4627C23.5619 23.1315 21.8092 24.1237 20.084 23.7082C18.3579 23.2912 17.2763 21.6177 17.6346 19.9167C17.9925 18.2151 19.6617 17.094 21.4154 17.3779C22.1338 17.4755 22.7962 17.8199 23.2899 18.3525C23.631 18.7048 23.8871 19.1309 24.0382 19.5981H26.8218C26.4573 16.6728 23.887 14.7031 20.9011 14.7031C19.3118 14.6828 17.779 15.2938 16.637 16.4028C16.0804 16.9431 15.6392 17.5914 15.3402 18.3082C15.0413 19.025 14.8908 19.7953 14.898 20.5723C14.898 23.9117 17.5759 26.3905 20.9021 26.3905C23.9207 26.3905 26.4071 24.4289 26.8393 21.4627H24.0539H24.0543Z" fill="white"/>
<path opacity="0.05" d="M15.4044 24.6581H11.3744L10.7156 26.3516H7.63153L12.3512 14.6875H14.4081L19.3155 26.3554H16.0594L15.4034 24.6581H15.4044ZM12.5199 21.7709L12.4189 22.0343H14.3754L14.3077 21.8365L13.3967 19.3353L12.5199 21.7709Z" fill="#002447"/>
<path d="M14.6412 24.6581H10.6178L9.9595 26.3516H6.875L11.5951 14.6875H13.6521L18.5594 26.3554H15.3048L14.6412 24.6581ZM11.7634 21.7709L11.6629 22.0343H13.6194L13.5511 21.8365L12.6407 19.3353L11.7638 21.7709H11.7634Z" fill="white"/>
<defs>
<radialGradient id="paint0_radial_117_9708" cx="0" cy="0" r="1" gradientUnits="userSpaceOnUse" gradientTransform="rotate(45) scale(56.5685)">
<stop stop-color="#0ECAD4"/>
<stop offset="1" stop-color="#006BD6"/>
</radialGradient>
</defs>
</svg>
