<svg width="41" height="40" viewBox="0 0 41 40" fill="none" xmlns="http://www.w3.org/2000/svg">
<g clip-path="url(#clip0_120_9753)">
<path d="M7.54459 0.932623L0.932477 7.54576C0.333784 8.14455 0 8.95 0 9.79254V32.3186C0 33.1982 0.709954 33.9083 1.58945 33.9083H32.3188C33.1983 33.9083 33.9083 33.1982 33.9083 32.3186V1.5897C33.9083 0.710065 33.1983 0 32.3188 0H9.79631C8.9539 0 8.14328 0.333837 7.54988 0.932623H7.54459Z" fill="url(#paint0_radial_120_9753)"/>
<path fill-rule="evenodd" clip-rule="evenodd" d="M7.54988 0.932623C8.14328 0.333837 8.9539 0 9.79631 0H32.3188C33.1983 0 33.9083 0.710065 33.9083 1.5897V32.3186C33.9083 33.1982 33.1983 33.9083 32.3188 33.9083H1.58945C0.709954 33.9083 0 33.1982 0 32.3186V9.79254C0 8.95 0.333784 8.14455 0.932477 7.54576L7.54459 0.932623H7.54988ZM7.95885 1.93262L1.63964 8.25282C1.22784 8.66468 1 9.21605 1 9.79254V32.3186C1 32.646 1.26239 32.9083 1.58945 32.9083H32.3188C32.6459 32.9083 32.9083 32.646 32.9083 32.3186V1.5897C32.9083 1.2622 32.6459 1 32.3188 1H9.79631C9.21748 1 8.66355 1.22949 8.26018 1.63652L7.96675 1.93262H7.95885Z" fill="white" fill-opacity="0.25"/>
<path d="M23.9913 22.3401H21.5365V12.4612H28.0802V14.7616H23.9913V16.5245H27.8452V18.7677H23.9913V22.3405V22.3401Z" fill="white"/>
<path opacity="0.05" d="M20.8889 18.1942H23.3221C22.9621 20.7086 20.8484 22.3715 18.2874 22.3715C15.4831 22.3715 13.1998 20.2693 13.1998 17.4385C13.1939 16.7802 13.3215 16.1276 13.5749 15.5202C13.8282 14.9129 14.202 14.3636 14.6735 13.9056C15.6413 12.9655 16.9403 12.4473 18.2874 12.464C20.8247 12.464 22.9975 14.1398 23.3064 16.6139H20.8757C20.1449 13.8113 15.5907 14.0854 15.5907 17.4385C15.5907 20.7921 20.2019 21.0391 20.8889 18.195V18.1942Z" fill="#002447"/>
<path d="M20.3911 18.1942C19.9736 19.6088 18.4879 20.4499 17.0254 20.0977C15.5621 19.7442 14.6453 18.3256 14.949 16.8836C15.2524 15.4412 16.6674 14.4908 18.154 14.7314C18.763 14.8142 19.3245 15.1062 19.743 15.5576C20.0322 15.8563 20.2492 16.2175 20.3774 16.6136H22.737C22.4281 14.1338 20.2492 12.464 17.7181 12.464C16.3708 12.4468 15.0714 12.9648 14.1033 13.9048C13.6315 14.3629 13.2575 14.9125 13.004 15.5201C12.7506 16.1277 12.6231 16.7807 12.6292 17.4393C12.6292 20.2702 14.8992 22.3715 17.7189 22.3715C20.2778 22.3715 22.3855 20.7087 22.7519 18.1942H20.3907H20.3911Z" fill="white"/>
<path opacity="0.05" d="M13.0584 20.9029H9.64211L9.08365 22.3384H6.4693L10.4702 12.4507H12.2139L16.3738 22.3417H13.6137L13.0576 20.9029H13.0584ZM10.6132 18.4553L10.5276 18.6786H12.1861L12.1287 18.5109L11.3565 16.3906L10.6132 18.4553Z" fill="#002447"/>
<path d="M12.4115 20.9029H9.00082L8.44275 22.3384H5.828L9.82928 12.4507H11.573L15.733 22.3417H12.974L12.4115 20.9029ZM9.97191 18.4553L9.88673 18.6786H11.5453L11.4874 18.5109L10.7156 16.3906L9.97231 18.4553H9.97191Z" fill="white"/>
<rect x="18" y="26" width="22.29" height="13.1994" rx="6.59972" fill="url(#paint1_radial_120_9753)"/>
<rect x="18.5" y="26.5" width="21.29" height="12.1994" rx="6.09972" stroke="white" stroke-opacity="0.4"/>
<path fill-rule="evenodd" clip-rule="evenodd" d="M33.1989 35.2127C32.7879 35.2127 32.4199 35.1185 32.0948 34.9299C31.7698 34.7414 31.5129 34.47 31.3242 34.1157C31.1376 33.7615 31.0442 33.3357 31.0442 32.8385C31.0442 32.3392 31.1376 31.9124 31.3242 31.5581C31.5129 31.2018 31.7698 30.9293 32.0948 30.7408C32.4199 30.5523 32.7879 30.458 33.1989 30.458C33.6078 30.458 33.9737 30.5523 34.2967 30.7408C34.6217 30.9293 34.8775 31.2018 35.0642 31.5581C35.2529 31.9124 35.3473 32.3392 35.3473 32.8385C35.3473 33.3357 35.2529 33.7625 35.0642 34.1188C34.8775 34.4731 34.6217 34.7445 34.2967 34.9331C33.9737 35.1195 33.6078 35.2127 33.1989 35.2127ZM33.1989 34.47C33.4526 34.47 33.677 34.4079 33.872 34.2836C34.0692 34.1572 34.2233 33.9728 34.3344 33.7304C34.4456 33.4859 34.5011 33.1886 34.5011 32.8385C34.5011 32.4842 34.4456 32.1859 34.3344 31.9435C34.2233 31.699 34.0692 31.5146 33.872 31.3903C33.677 31.2639 33.4526 31.2007 33.1989 31.2007C32.9431 31.2007 32.7166 31.2639 32.5195 31.3903C32.3224 31.5167 32.1672 31.7021 32.0539 31.9466C31.9428 32.189 31.8872 32.4863 31.8872 32.8385C31.8872 33.1886 31.9428 33.4849 32.0539 33.7273C32.1672 33.9697 32.3224 34.1541 32.5195 34.2804C32.7166 34.4068 32.9431 34.47 33.1989 34.47ZM27.3415 35.1506C27.2035 35.1506 27.0915 35.0387 27.0915 34.9006V30.7702C27.0915 30.6321 27.2035 30.5202 27.3415 30.5202H28.8436C29.2022 30.5202 29.5041 30.5823 29.7495 30.7066C29.9948 30.8309 30.1804 31.005 30.3062 31.2287C30.4321 31.4504 30.495 31.7083 30.495 32.0025C30.495 32.2967 30.431 32.5526 30.3031 32.7701C30.1773 32.9876 29.9906 33.1555 29.7432 33.2736C29.7138 33.2876 29.6837 33.3007 29.6527 33.3131L30.463 34.7797C30.5551 34.9463 30.4346 35.1506 30.2442 35.1506H29.8763C29.7846 35.1506 29.7002 35.1004 29.6565 35.0197L28.8061 33.4507H27.9314V34.9006C27.9314 35.0387 27.8195 35.1506 27.6814 35.1506H27.3415ZM28.7209 32.7639H27.9314V31.4663C27.9314 31.3282 28.0433 31.2163 28.1814 31.2163H28.7146C28.9285 31.2163 29.1026 31.2474 29.2368 31.3095C29.3731 31.3717 29.4737 31.4618 29.5387 31.5799C29.6037 31.6959 29.6362 31.8368 29.6362 32.0025C29.6362 32.1641 29.6037 32.3019 29.5387 32.4158C29.4737 32.5298 29.3741 32.6168 29.2399 32.6769C29.1057 32.7349 28.9327 32.7639 28.7209 32.7639ZM23.0153 34.9006C23.0153 35.0387 23.1272 35.1506 23.2653 35.1506H23.6051C23.7432 35.1506 23.8551 35.0387 23.8551 34.9006V33.5843H24.7547C25.1154 33.5843 25.4195 33.518 25.6669 33.3854C25.9144 33.2528 26.101 33.0716 26.2268 32.8416C26.3547 32.6116 26.4187 32.3485 26.4187 32.0522C26.4187 31.758 26.3558 31.496 26.23 31.266C26.1041 31.034 25.9185 30.8516 25.6732 30.719C25.4279 30.5865 25.1259 30.5202 24.7673 30.5202H23.2653C23.1272 30.5202 23.0153 30.6321 23.0153 30.7702V34.9006ZM23.8551 32.9006H24.6446C24.8564 32.9006 25.0294 32.8644 25.1636 32.7919C25.2999 32.7194 25.3995 32.6189 25.4625 32.4904C25.5275 32.362 25.56 32.2159 25.56 32.0522C25.56 31.8886 25.5275 31.7435 25.4625 31.6172C25.3995 31.4908 25.2999 31.3924 25.1636 31.3219C25.0273 31.2515 24.8522 31.2163 24.6383 31.2163H24.1051C23.967 31.2163 23.8551 31.3282 23.8551 31.4663V32.9006Z" fill="white"/>
</g>
<defs>
<radialGradient id="paint0_radial_120_9753" cx="0" cy="0" r="1" gradientUnits="userSpaceOnUse" gradientTransform="rotate(45) scale(47.9535)">
<stop stop-color="#0ECAD4"/>
<stop offset="1" stop-color="#006BD6"/>
</radialGradient>
<radialGradient id="paint1_radial_120_9753" cx="0" cy="0" r="1" gradientUnits="userSpaceOnUse" gradientTransform="translate(40.3484 39.1008) rotate(-149.621) scale(25.9053 22.7152)">
<stop stop-color="#0ECAD4"/>
<stop offset="1" stop-color="#7A45E5"/>
</radialGradient>
<clipPath id="clip0_120_9753">
<rect width="40.2902" height="39.1996" fill="white"/>
</clipPath>
</defs>
</svg>
