<svg width="284" height="44" viewBox="0 0 284 44" fill="none" xmlns="http://www.w3.org/2000/svg">
<path fill-rule="evenodd" clip-rule="evenodd" d="M29.8067 14.5H38.1933C38.5589 14.5 38.8743 14.5 39.1353 14.5178C39.4102 14.5365 39.6851 14.5778 39.9567 14.6903C40.5693 14.944 41.056 15.4307 41.3097 16.0433C41.4222 16.3149 41.4635 16.5898 41.4822 16.8647C41.5 17.1257 41.5 17.4411 41.5 17.8067V17.8333C41.5 18.2936 41.1269 18.6667 40.6667 18.6667C40.2064 18.6667 39.8333 18.2936 39.8333 17.8333C39.8333 17.4336 39.8329 17.1756 39.8194 16.9781C39.8064 16.7881 39.7843 16.7158 39.7699 16.6811C39.6853 16.4769 39.5231 16.3147 39.3189 16.2301C39.2842 16.2157 39.2119 16.1936 39.0219 16.1806C38.8244 16.1671 38.5664 16.1667 38.1667 16.1667H34.8333V27.8333H36.5C36.9602 27.8333 37.3333 28.2064 37.3333 28.6667C37.3333 29.1269 36.9602 29.5 36.5 29.5H31.5C31.0398 29.5 30.6667 29.1269 30.6667 28.6667C30.6667 28.2064 31.0398 27.8333 31.5 27.8333H33.1667V16.1667H29.8333C29.4336 16.1667 29.1756 16.1671 28.9781 16.1806C28.7881 16.1936 28.7158 16.2157 28.6811 16.2301C28.4769 16.3147 28.3147 16.4769 28.2301 16.6811C28.2157 16.7158 28.1936 16.7881 28.1806 16.9781C28.1671 17.1756 28.1667 17.4336 28.1667 17.8333C28.1667 18.2936 27.7936 18.6667 27.3333 18.6667C26.8731 18.6667 26.5 18.2936 26.5 17.8333L26.5 17.8067C26.5 17.4411 26.5 17.1257 26.5178 16.8647C26.5365 16.5898 26.5778 16.3149 26.6903 16.0433C26.944 15.4307 27.4307 14.944 28.0433 14.6903C28.3149 14.5778 28.5898 14.5365 28.8647 14.5178C29.1257 14.5 29.4411 14.5 29.8067 14.5Z" fill="#98A2B3"/>
<path fill-rule="evenodd" clip-rule="evenodd" d="M65.0699 17.001C65.1014 16.9994 65.1333 16.9997 65.1653 17.0018C66.7255 17.105 68.168 17.8824 69.1119 19.1113C69.3923 19.4763 69.3237 19.9994 68.9587 20.2798C68.5937 20.5601 68.0705 20.4915 67.7902 20.1265C67.1445 19.286 66.1582 18.7488 65.0926 18.6675C63.1778 18.6772 61.6667 20.1857 61.6667 22.0004C61.6667 23.814 63.1885 25.3333 65.1111 25.3333C66.2491 25.3333 67.2569 24.5468 68.0528 23.5603C68.436 23.0853 68.7354 22.6058 68.9394 22.243C69.0409 22.0625 69.1174 21.9133 69.1676 21.8113C69.1927 21.7603 69.2112 21.7213 69.2229 21.6961L69.2352 21.6692L69.2374 21.6644C69.2373 21.6646 69.2372 21.6648 70 22.0004C70.7628 22.3361 70.7626 22.3363 70.7625 22.3366L70.7624 22.3367L70.7624 22.3368L70.7623 22.3371L70.7623 22.3372L70.7616 22.3387L70.7598 22.3428L70.754 22.3555C70.7493 22.366 70.7428 22.3803 70.7344 22.3982C70.7178 22.4342 70.6939 22.4846 70.6629 22.5476C70.6009 22.6734 70.5103 22.8497 70.3922 23.0598C70.157 23.4781 69.8071 24.0402 69.35 24.6068C68.4653 25.7034 67.0287 27 65.1111 27C62.3078 27 60 24.7737 60 22.0004C60 19.2318 62.2862 17.0226 65.0699 17.001ZM74.9162 25.3332C76.8189 25.3189 78.3333 23.8044 78.3333 22.0004C78.3333 20.1809 76.8054 18.6675 74.8889 18.6675C73.7509 18.6675 72.7431 19.454 71.9472 20.4405C71.564 20.9155 71.2646 21.395 71.0606 21.7579C70.9591 21.9383 70.8826 22.0875 70.8323 22.1895C70.8073 22.2405 70.7888 22.2795 70.7771 22.3047L70.7648 22.3316L70.7628 22.3361L70.7626 22.3365C70.7627 22.3363 70.7628 22.3361 70 22.0004C69.2372 21.6648 69.2374 21.6645 69.2375 21.6643L69.2376 21.6641L69.2376 21.664L69.2377 21.6637L69.2377 21.6637L69.2384 21.6622L69.2402 21.658L69.246 21.6453C69.2507 21.6349 69.2572 21.6205 69.2656 21.6026C69.2822 21.5667 69.3061 21.5162 69.3371 21.4532C69.3991 21.3275 69.4897 21.1511 69.6078 20.941C69.843 20.5227 70.1929 19.9606 70.65 19.394C71.5347 18.2974 72.9713 17.0008 74.8889 17.0008C77.682 17.0008 80 19.2172 80 22.0004C80 24.7747 77.6831 27 74.8889 27C74.8707 27 74.8524 26.9994 74.8342 26.9982C73.2704 26.8954 71.8242 26.129 70.8848 24.8934C70.6062 24.527 70.6774 24.0042 71.0438 23.7257C71.4102 23.4471 71.933 23.5183 72.2115 23.8847C72.8475 24.7212 73.8344 25.2544 74.9162 25.3332Z" fill="#98A2B3"/>
<path fill-rule="evenodd" clip-rule="evenodd" d="M102.466 13.6667H109.534C110.205 13.6667 110.759 13.6667 111.21 13.7035C111.678 13.7418 112.109 13.8239 112.513 14.03C113.141 14.3496 113.65 14.8595 113.97 15.4867C114.176 15.8912 114.258 16.3217 114.297 16.7902C114.333 17.2411 114.333 17.7948 114.333 18.4656V25.5344C114.333 26.2052 114.333 26.7589 114.297 27.2099C114.258 27.6783 114.176 28.1089 113.97 28.5133C113.65 29.1405 113.141 29.6504 112.513 29.97C112.109 30.1761 111.678 30.2582 111.21 30.2965C110.759 30.3334 110.205 30.3334 109.534 30.3333H102.466C102.445 30.3333 102.425 30.3333 102.406 30.3333L101.745 30.3333C101.52 30.3334 101.298 30.3334 101.12 30.3176C101.113 30.317 101.106 30.3164 101.099 30.3157C100.991 30.3108 100.888 30.3045 100.79 30.2965C100.322 30.2582 99.8912 30.1761 99.4867 29.97C98.8595 29.6504 98.3496 29.1405 98.03 28.5133C97.8239 28.1089 97.7418 27.6783 97.7035 27.2099C97.6667 26.7589 97.6667 26.2052 97.6667 25.5344V18.4656C97.6667 17.7948 97.6667 17.2411 97.7035 16.7902C97.7418 16.3217 97.8239 15.8912 98.03 15.4867C98.3496 14.8595 98.8595 14.3496 99.4867 14.03C99.8912 13.8239 100.322 13.7418 100.79 13.7035C101.241 13.6667 101.795 13.6667 102.466 13.6667ZM102.5 28.6667C102.387 28.6667 102.28 28.6667 102.179 28.6665L108.98 21.8654C109.155 21.6907 109.251 21.5955 109.325 21.5324C109.328 21.5299 109.331 21.5276 109.333 21.5253C109.336 21.5276 109.339 21.5299 109.342 21.5324C109.416 21.5955 109.512 21.6907 109.687 21.8654L112.667 24.8452V25.5C112.667 26.2138 112.666 26.6991 112.635 27.0741C112.606 27.4395 112.551 27.6263 112.485 27.7567C112.325 28.0703 112.07 28.3252 111.757 28.485C111.626 28.5514 111.439 28.6055 111.074 28.6354C110.699 28.666 110.214 28.6667 109.5 28.6667H102.5ZM112.667 22.4882L110.847 20.6681C110.698 20.5194 110.553 20.3745 110.42 20.2619C110.275 20.1382 110.09 20.0052 109.848 19.9268C109.514 19.818 109.153 19.818 108.818 19.9268C108.577 20.0052 108.392 20.1382 108.246 20.2619C108.114 20.3745 107.969 20.5194 107.82 20.6681L100.694 27.7946C100.534 27.9539 100.378 28.1105 100.263 28.2477C100.227 28.2901 100.179 28.3487 100.131 28.4221C99.8687 28.2619 99.6552 28.0318 99.515 27.7567C99.4486 27.6263 99.3945 27.4395 99.3646 27.0741C99.334 26.6991 99.3333 26.2138 99.3333 25.5V18.5C99.3333 17.7862 99.334 17.3009 99.3646 16.9259C99.3945 16.5605 99.4486 16.3737 99.515 16.2434C99.6748 15.9298 99.9298 15.6748 100.243 15.515C100.374 15.4486 100.561 15.3945 100.926 15.3646C101.301 15.334 101.786 15.3333 102.5 15.3333H109.5C110.214 15.3333 110.699 15.334 111.074 15.3646C111.439 15.3945 111.626 15.4486 111.757 15.515C112.07 15.6748 112.325 15.9298 112.485 16.2434C112.551 16.3737 112.606 16.5605 112.635 16.9259C112.666 17.3009 112.667 17.7862 112.667 18.5V22.4882ZM103.083 18.25C102.623 18.25 102.25 18.6231 102.25 19.0833C102.25 19.5436 102.623 19.9167 103.083 19.9167C103.544 19.9167 103.917 19.5436 103.917 19.0833C103.917 18.6231 103.544 18.25 103.083 18.25ZM100.583 19.0833C100.583 17.7026 101.703 16.5833 103.083 16.5833C104.464 16.5833 105.583 17.7026 105.583 19.0833C105.583 20.4641 104.464 21.5833 103.083 21.5833C101.703 21.5833 100.583 20.4641 100.583 19.0833Z" fill="#98A2B3"/>
<path fill-rule="evenodd" clip-rule="evenodd" d="M150.727 12.9319C150.998 13.0769 151.167 13.3593 151.167 13.6667V27C151.167 27.2786 151.027 27.5388 150.796 27.6934L145.796 31.0267C145.533 31.2018 145.194 31.2135 144.92 31.0569L139.5 27.9598L134.08 31.0569C133.822 31.2042 133.505 31.2032 133.248 31.0541C132.991 30.905 132.833 30.6304 132.833 30.3333V17C132.833 16.7009 132.994 16.4248 133.253 16.2765L139.087 12.9431C139.343 12.7967 139.657 12.7967 139.913 12.9431L145.3 16.0209L149.871 12.9733C150.127 12.8028 150.456 12.7869 150.727 12.9319ZM144.5 17.4836L140.333 15.1026V26.5164L144.5 28.8973V17.4836ZM146.167 28.7762L149.5 26.554V15.2238L146.167 17.446V28.7762ZM138.667 26.5164V15.1026L134.5 17.4836V28.8973L138.667 26.5164Z" fill="#98A2B3"/>
<path fill-rule="evenodd" clip-rule="evenodd" d="M174.667 12.8333C175.127 12.8333 175.5 13.2064 175.5 13.6667V14.5H180.5V13.6667C180.5 13.2064 180.873 12.8333 181.333 12.8333C181.794 12.8333 182.167 13.2064 182.167 13.6667V14.5013C182.563 14.5041 182.909 14.5123 183.21 14.5368C183.678 14.5751 184.109 14.6572 184.513 14.8633C185.141 15.1829 185.65 15.6928 185.97 16.32C186.176 16.7245 186.258 17.1551 186.297 17.6235C186.333 18.0745 186.333 18.6281 186.333 19.2989V26.3678C186.333 27.0386 186.333 27.5922 186.297 28.0432C186.258 28.5116 186.176 28.9422 185.97 29.3466C185.65 29.9738 185.141 30.4838 184.513 30.8033C184.109 31.0094 183.678 31.0916 183.21 31.1298C182.759 31.1667 182.205 31.1667 181.534 31.1667H174.466C173.795 31.1667 173.241 31.1667 172.79 31.1298C172.322 31.0916 171.891 31.0094 171.487 30.8033C170.859 30.4838 170.35 29.9738 170.03 29.3466C169.824 28.9422 169.742 28.5116 169.704 28.0432C169.667 27.5922 169.667 27.0386 169.667 26.3677V19.2989C169.667 18.6281 169.667 18.0745 169.704 17.6235C169.742 17.1551 169.824 16.7245 170.03 16.32C170.35 15.6928 170.859 15.1829 171.487 14.8633C171.891 14.6572 172.322 14.5751 172.79 14.5368C173.091 14.5123 173.437 14.5041 173.833 14.5013V13.6667C173.833 13.2064 174.206 12.8333 174.667 12.8333ZM173.833 16.1681C173.462 16.1707 173.171 16.178 172.926 16.198C172.561 16.2278 172.374 16.2819 172.243 16.3483C171.93 16.5081 171.675 16.7631 171.515 17.0767C171.449 17.207 171.394 17.3938 171.365 17.7592C171.334 18.1343 171.333 18.6195 171.333 19.3333V19.5H184.667V19.3333C184.667 18.6195 184.666 18.1343 184.635 17.7592C184.606 17.3938 184.551 17.207 184.485 17.0767C184.325 16.7631 184.07 16.5081 183.757 16.3483C183.626 16.2819 183.439 16.2278 183.074 16.198C182.829 16.178 182.538 16.1707 182.167 16.1681V17C182.167 17.4602 181.794 17.8333 181.333 17.8333C180.873 17.8333 180.5 17.4602 180.5 17V16.1667H175.5V17C175.5 17.4602 175.127 17.8333 174.667 17.8333C174.206 17.8333 173.833 17.4602 173.833 17V16.1681ZM184.667 21.1667H171.333V26.3333C171.333 27.0471 171.334 27.5324 171.365 27.9075C171.394 28.2728 171.449 28.4596 171.515 28.59C171.675 28.9036 171.93 29.1585 172.243 29.3183C172.374 29.3847 172.561 29.4389 172.926 29.4687C173.301 29.4993 173.786 29.5 174.5 29.5H181.5C182.214 29.5 182.699 29.4993 183.074 29.4687C183.439 29.4389 183.626 29.3847 183.757 29.3183C184.07 29.1585 184.325 28.9036 184.485 28.59C184.551 28.4596 184.606 28.2728 184.635 27.9075C184.666 27.5324 184.667 27.0471 184.667 26.3333V21.1667Z" fill="#98A2B3"/>
<path fill-rule="evenodd" clip-rule="evenodd" d="M214.581 13.0696L214 13.6667L213.419 13.0696C213.742 12.7546 214.258 12.7546 214.581 13.0696ZM214 14.843C213.928 14.9158 213.851 14.9944 213.768 15.0784C213.271 15.5854 212.599 16.2856 211.897 17.0599C211.195 17.8358 210.469 18.6782 209.863 19.4706C209.244 20.2786 208.793 20.9785 208.59 21.4793C208.317 22.1537 208.167 22.8916 208.167 23.6667C208.167 26.8883 210.778 29.5 214 29.5C217.222 29.5 219.833 26.8883 219.833 23.6667C219.833 22.8916 219.683 22.1537 219.41 21.4793C219.207 20.9785 218.756 20.2786 218.137 19.4706C217.531 18.6782 216.805 17.8358 216.103 17.0599C215.401 16.2856 214.729 15.5854 214.232 15.0784C214.149 14.9944 214.072 14.9158 214 14.843ZM213.419 13.0696C213.419 13.0695 213.419 13.0696 214 13.6667C214.581 13.0696 214.581 13.0695 214.581 13.0696L214.586 13.074L214.598 13.0856L214.643 13.1298C214.682 13.1684 214.739 13.225 214.813 13.2976C214.959 13.4429 215.168 13.6525 215.422 13.9115C215.929 14.4291 216.617 15.1458 217.338 15.941C218.057 16.7348 218.815 17.6147 219.461 18.4575C220.094 19.2849 220.663 20.1332 220.955 20.854C221.307 21.7237 221.5 22.6736 221.5 23.6667C221.5 27.8088 218.142 31.1667 214 31.1667C209.858 31.1667 206.5 27.8088 206.5 23.6667C206.5 22.6736 206.693 21.7237 207.045 20.854C207.337 20.1332 207.906 19.2849 208.539 18.4575C209.185 17.6147 209.943 16.7348 210.662 15.941C211.383 15.1458 212.071 14.4291 212.578 13.9115C212.832 13.6525 213.041 13.4429 213.187 13.2976C213.261 13.225 213.318 13.1684 213.357 13.1298L213.402 13.0856L213.419 13.0696Z" fill="#98A2B3"/>
<path fill-rule="evenodd" clip-rule="evenodd" d="M242.546 21.1667H245.875C246.062 18.864 246.833 16.6537 248.105 14.7415C245.141 15.5133 242.89 18.0527 242.546 21.1667ZM250 14.959C248.609 16.7516 247.757 18.9057 247.548 21.1667H252.452C252.243 18.9057 251.391 16.7516 250 14.959ZM252.452 22.8333C252.243 25.0943 251.391 27.2484 250 29.041C248.609 27.2484 247.757 25.0943 247.548 22.8333H252.452ZM245.875 22.8333H242.546C242.89 25.9473 245.141 28.4867 248.105 29.2585C246.833 27.3463 246.062 25.136 245.875 22.8333ZM251.895 29.2585C253.167 27.3463 253.938 25.136 254.125 22.8333H257.454C257.11 25.9473 254.859 28.4867 251.895 29.2585ZM257.454 21.1667H254.125C253.938 18.864 253.167 16.6537 251.895 14.7415C254.859 15.5133 257.11 18.0527 257.454 21.1667ZM240.833 22C240.833 16.9374 244.937 12.8333 250 12.8333C255.063 12.8333 259.167 16.9374 259.167 22C259.167 27.0626 255.063 31.1667 250 31.1667C244.937 31.1667 240.833 27.0626 240.833 22Z" fill="#98A2B3"/>
<rect x="0.5" y="0.5" width="283" height="43" rx="21.5" stroke="#C6CBD3" stroke-dasharray="4 4"/>
</svg>
