<svg width="64" height="64" viewBox="0 0 64 64" fill="none" xmlns="http://www.w3.org/2000/svg">
<path fill-rule="evenodd" clip-rule="evenodd" d="M31.9998 8.00002C18.745 8.00002 7.99984 18.7452 7.99984 32C7.99984 45.2549 18.745 56 31.9998 56C45.2547 56 55.9998 45.2549 55.9998 32C55.9998 18.7452 45.2547 8.00002 31.9998 8.00002ZM2.6665 32C2.6665 15.7997 15.7995 2.66669 31.9998 2.66669C48.2002 2.66669 61.3332 15.7997 61.3332 32C61.3332 48.2004 48.2002 61.3334 31.9998 61.3334C15.7995 61.3334 2.6665 48.2004 2.6665 32ZM28.3505 22.5723C29.4924 23.5024 29.6642 25.1821 28.7342 26.324C27.2405 28.1581 25.0741 29.3333 22.6665 29.3333C20.2322 29.3333 18.13 28.1359 16.63 26.3616C15.6792 25.2369 15.8202 23.5543 16.9449 22.6035C18.0697 21.6527 19.7522 21.7937 20.703 22.9184C21.3897 23.7308 22.0875 24 22.6665 24C23.2722 24 23.9859 23.7086 24.5988 22.956C25.5289 21.8141 27.2085 21.6423 28.3505 22.5723ZM47.0172 22.5723C48.1591 23.5024 48.3309 25.1821 47.4008 26.324C45.9071 28.1581 43.7408 29.3333 41.3332 29.3333C38.8989 29.3333 36.7966 28.1359 35.2967 26.3616C34.3459 25.2369 34.4869 23.5543 35.6116 22.6035C36.7363 21.6527 38.4189 21.7937 39.3697 22.9184C40.0564 23.7308 40.7541 24 41.3332 24C41.9389 24 42.6526 23.7086 43.2655 22.956C44.1955 21.8141 45.8752 21.6423 47.0172 22.5723ZM22.598 37.8434C24.7259 36.2959 27.9318 34.6667 31.9998 34.6667C36.0679 34.6667 39.2738 36.2959 41.4016 37.8434C42.4707 38.6209 43.2971 39.3981 43.8626 39.9883C44.1465 40.2845 44.3678 40.5369 44.5242 40.7232C44.6025 40.8165 44.6648 40.8935 44.7107 40.9516L44.7675 41.0243L44.7868 41.0494L44.7941 41.059L44.7971 41.0631C44.7978 41.064 44.7998 41.0667 42.6665 42.6667L44.7998 41.0667C45.6835 42.2449 45.4447 43.9164 44.2665 44.8C43.092 45.6809 41.4274 45.4464 40.5415 44.2778L40.5292 44.262C40.5133 44.242 40.4831 44.2044 40.439 44.1518C40.3506 44.0465 40.2073 43.8822 40.012 43.6784C39.6192 43.2686 39.029 42.7125 38.2647 42.1567C36.7259 41.0375 34.5984 40 31.9998 40C29.4013 40 27.2738 41.0375 25.735 42.1567C24.9707 42.7125 24.3804 43.2686 23.9876 43.6784C23.7923 43.8822 23.6491 44.0465 23.5607 44.1518C23.5166 44.2044 23.4864 44.242 23.4705 44.262L23.4593 44.2763L23.4622 44.2724L23.4642 44.2698M23.4642 44.2698C23.4618 44.273 23.4617 44.2731 23.4593 44.2763C22.5735 45.4449 20.9077 45.6809 19.7332 44.8C18.555 43.9164 18.3162 42.2449 19.1998 41.0667L21.3332 42.6667C19.1998 41.0667 19.1992 41.0676 19.1998 41.0667L19.2056 41.059L19.2129 41.0494L19.2321 41.0243L19.2889 40.9516C19.3349 40.8935 19.3972 40.8165 19.4755 40.7232C19.6319 40.5369 19.8532 40.2845 20.137 39.9883C20.7026 39.3981 21.529 38.6209 22.598 37.8434" fill="#C6CBD3"/>
</svg>
