<svg width="16" height="14" viewBox="0 0 16 14" fill="none" xmlns="http://www.w3.org/2000/svg">
<path d="M15.0007 5.3894H1.03223" stroke="#425FDD" stroke-width="1.2" stroke-linecap="round" stroke-linejoin="round"/>
<path d="M8.8642 12.6272C8.4484 13.0748 7.74042 13.1294 7.26844 12.7363C7.22349 12.6927 7.17854 12.6599 7.14482 12.6162L1.27873 6.04436H1.2776C0.929234 5.6513 0.906759 5.08353 1.22142 4.66863L3.70495 1.43674C3.90723 1.15286 4.24437 1 4.60397 1H11.3466C11.695 1 12.0321 1.15286 12.2456 1.43674L14.7404 4.65771C15.0551 5.0617 15.0326 5.62946 14.6842 6.02253L8.8642 12.6272Z" stroke="#425FDD" stroke-width="1.2" stroke-linecap="round" stroke-linejoin="round"/>
<path d="M4.12207 1.15283L7.83052 12.9885" stroke="#425FDD" stroke-width="1.2" stroke-linecap="round" stroke-linejoin="round"/>
<path d="M11.9096 1.15283L8.24609 12.9776" stroke="#425FDD" stroke-width="1.2" stroke-linecap="round" stroke-linejoin="round"/>
</svg>
