<svg width="40" height="24" viewBox="0 0 40 24" fill="none" xmlns="http://www.w3.org/2000/svg">
<rect width="40" height="23.6867" rx="11.8434" fill="url(#paint0_radial_109_8486)"/>
<path fill-rule="evenodd" clip-rule="evenodd" d="M27.2748 16.5325C26.5372 16.5325 25.8768 16.3633 25.2935 16.025C24.7103 15.6867 24.2493 15.1996 23.9106 14.5639C23.5757 13.9281 23.4082 13.1641 23.4082 12.2718C23.4082 11.3758 23.5757 10.6099 23.9106 9.97419C24.2493 9.33471 24.7103 8.84581 25.2935 8.50749C25.8768 8.16916 26.5372 8 27.2748 8C28.0086 8 28.6653 8.16916 29.2448 8.50749C29.8281 8.84581 30.2872 9.33471 30.6221 9.97419C30.9608 10.6099 31.1301 11.3758 31.1301 12.2718C31.1301 13.1641 30.9608 13.93 30.6221 14.5695C30.2872 15.2052 29.8281 15.6923 29.2448 16.0306C28.6653 16.3652 28.0086 16.5325 27.2748 16.5325ZM27.2748 15.1996C27.7302 15.1996 28.1328 15.0881 28.4828 14.865C28.8365 14.6383 29.1131 14.3074 29.3125 13.8724C29.512 13.4337 29.6117 12.9001 29.6117 12.2718C29.6117 11.6361 29.512 11.1007 29.3125 10.6657C29.1131 10.227 28.8365 9.89611 28.4828 9.67304C28.1328 9.44625 27.7302 9.33286 27.2748 9.33286C26.8157 9.33286 26.4093 9.44625 26.0556 9.67304C25.7018 9.89983 25.4234 10.2326 25.2202 10.6713C25.0207 11.1063 24.921 11.6398 24.921 12.2718C24.921 12.9001 25.0207 13.4318 25.2202 13.8668C25.4234 14.3018 25.7018 14.6327 26.0556 14.8595C26.4093 15.0863 26.8157 15.1996 27.2748 15.1996ZM16.565 16.421C16.4269 16.421 16.315 16.309 16.315 16.171V8.36153C16.315 8.22346 16.4269 8.11153 16.565 8.11153H19.4591C20.1026 8.11153 20.6445 8.22306 21.0847 8.44614C21.525 8.66921 21.8581 8.98151 22.0838 9.38304C22.3096 9.78085 22.4225 10.2437 22.4225 10.7717C22.4225 11.2996 22.3078 11.7588 22.0782 12.1491C21.8524 12.5395 21.5175 12.8407 21.0735 13.0526C21.0208 13.0777 20.9667 13.1014 20.9111 13.1235L22.5281 16.0501C22.6201 16.2167 22.4996 16.421 22.3092 16.421H21.1941C21.1024 16.421 21.018 16.3707 20.9743 16.2901L19.3918 13.3705H17.8221V16.171C17.8221 16.309 17.7102 16.421 17.5721 16.421H16.565ZM19.2389 12.138H17.8221V9.61073C17.8221 9.47266 17.9341 9.36073 18.0721 9.36073H19.2276C19.6115 9.36073 19.9238 9.4165 20.1647 9.52803C20.4093 9.63957 20.5899 9.8013 20.7065 10.0132C20.8232 10.2214 20.8815 10.4742 20.8815 10.7717C20.8815 11.0617 20.8232 11.3089 20.7065 11.5134C20.5899 11.7179 20.4111 11.874 20.1703 11.9818C19.9295 12.0859 19.619 12.138 19.2389 12.138ZM9 16.171C9 16.309 9.11193 16.421 9.25 16.421H10.2571C10.3952 16.421 10.5071 16.309 10.5071 16.171V13.6103H12.1215C12.7688 13.6103 13.3144 13.4913 13.7585 13.2533C14.2025 13.0154 14.5374 12.6901 14.7632 12.2774C14.9928 11.8647 15.1075 11.3925 15.1075 10.8609C15.1075 10.333 14.9946 9.86264 14.7689 9.44996C14.5431 9.03356 14.21 8.70639 13.7697 8.46844C13.3295 8.2305 12.7876 8.11153 12.1441 8.11153H9.25C9.11193 8.11153 9 8.22346 9 8.36153V16.171ZM10.5071 12.3834H11.9239C12.304 12.3834 12.6145 12.3183 12.8553 12.1882C13.0999 12.058 13.2787 11.8777 13.3916 11.6472C13.5082 11.4167 13.5665 11.1546 13.5665 10.8609C13.5665 10.5672 13.5082 10.3069 13.3916 10.0801C13.2787 9.85335 13.0999 9.67675 12.8553 9.55034C12.6107 9.42393 12.2965 9.36073 11.9127 9.36073H10.7571C10.6191 9.36073 10.5071 9.47266 10.5071 9.61073V12.3834Z" fill="white"/>
<defs>
<radialGradient id="paint0_radial_109_8486" cx="0" cy="0" r="1" gradientUnits="userSpaceOnUse" gradientTransform="translate(40.1048 23.5097) rotate(-149.621) scale(46.4877 40.763)">
<stop stop-color="#0ECAD4"/>
<stop offset="1" stop-color="#7A45E5"/>
</radialGradient>
</defs>
</svg>
