<svg width="55" height="24" viewBox="0 0 55 24" fill="none" xmlns="http://www.w3.org/2000/svg">
<rect width="55" height="23.6867" rx="11.8434" fill="url(#paint0_radial_117_9719)"/>
<path fill-rule="evenodd" clip-rule="evenodd" d="M10.6667 9.33333C10.6667 7.49238 12.1591 6 14 6C15.8409 6 17.3333 7.49238 17.3333 9.33333V10.528C17.4903 10.5624 17.641 10.6125 17.7866 10.6867C18.2048 10.8997 18.5447 11.2397 18.7578 11.6578C18.8952 11.9274 18.9499 12.2145 18.9754 12.5268C19 12.8274 19 13.1965 19 13.6437V13.9118C19 14.359 19 14.7281 18.9754 15.0288C18.9499 15.3411 18.8952 15.6281 18.7578 15.8978C18.5447 16.3159 18.2048 16.6558 17.7866 16.8689C17.517 17.0063 17.23 17.061 16.9177 17.0866C16.617 17.1111 16.2479 17.1111 15.8007 17.1111H12.1993C11.7521 17.1111 11.383 17.1111 11.0823 17.0866C10.77 17.061 10.483 17.0063 10.2134 16.8689C9.79522 16.6558 9.45526 16.3159 9.24221 15.8978C9.10482 15.6281 9.05007 15.3411 9.02455 15.0288C8.99999 14.7281 8.99999 14.359 9 13.9118V13.6437C8.99999 13.1965 8.99999 12.8274 9.02455 12.5268C9.05007 12.2145 9.10482 11.9274 9.24221 11.6578C9.45526 11.2397 9.79522 10.8997 10.2134 10.6867C10.359 10.6125 10.5097 10.5624 10.6667 10.528V9.33333ZM11.7778 10.4453C11.9098 10.4444 12.0502 10.4444 12.1993 10.4444H15.8007C15.9498 10.4444 16.0902 10.4444 16.2222 10.4453V9.33333C16.2222 8.10603 15.2273 7.11111 14 7.11111C12.7727 7.11111 11.7778 8.10603 11.7778 9.33333V10.4453ZM11.1728 11.5764C10.9292 11.5963 10.8047 11.6324 10.7178 11.6767C10.5087 11.7832 10.3387 11.9532 10.2322 12.1622C10.1879 12.2491 10.1519 12.3737 10.132 12.6172C10.1115 12.8673 10.1111 13.1908 10.1111 13.6667V13.8889C10.1111 14.3648 10.1115 14.6883 10.132 14.9383C10.1519 15.1819 10.1879 15.3064 10.2322 15.3933C10.3387 15.6024 10.5087 15.7724 10.7178 15.8789C10.8047 15.9232 10.9292 15.9592 11.1728 15.9791C11.4228 15.9996 11.7463 16 12.2222 16H15.7778C16.2537 16 16.5772 15.9996 16.8272 15.9791C17.0708 15.9592 17.1953 15.9232 17.2822 15.8789C17.4913 15.7724 17.6613 15.6024 17.7678 15.3933C17.8121 15.3064 17.8481 15.1819 17.868 14.9383C17.8885 14.6883 17.8889 14.3648 17.8889 13.8889V13.6667C17.8889 13.1908 17.8885 12.8673 17.868 12.6172C17.8481 12.3737 17.8121 12.2491 17.7678 12.1622C17.6613 11.9532 17.4913 11.7832 17.2822 11.6767C17.1953 11.6324 17.0708 11.5963 16.8272 11.5764C16.5772 11.556 16.2537 11.5556 15.7778 11.5556H12.2222C11.7463 11.5556 11.4228 11.556 11.1728 11.5764Z" fill="white"/>
<path fill-rule="evenodd" clip-rule="evenodd" d="M42.2748 15.8218C41.5372 15.8218 40.8768 15.6526 40.2935 15.3143C39.7103 14.976 39.2493 14.489 38.9106 13.8532C38.5757 13.2174 38.4082 12.4534 38.4082 11.5611C38.4082 10.6651 38.5757 9.89925 38.9106 9.26349C39.2493 8.62402 39.7103 8.13512 40.2935 7.7968C40.8768 7.45847 41.5372 7.28931 42.2748 7.28931C43.0086 7.28931 43.6653 7.45847 44.2448 7.7968C44.8281 8.13512 45.2872 8.62402 45.6221 9.26349C45.9608 9.89925 46.1301 10.6651 46.1301 11.5611C46.1301 12.4534 45.9608 13.2193 45.6221 13.8588C45.2872 14.4945 44.8281 14.9816 44.2448 15.3199C43.6653 15.6545 43.0086 15.8218 42.2748 15.8218ZM42.2748 14.489C42.7302 14.489 43.1328 14.3774 43.4828 14.1543C43.8365 13.9276 44.1131 13.5967 44.3125 13.1617C44.512 12.723 44.6117 12.1895 44.6117 11.5611C44.6117 10.9254 44.512 10.39 44.3125 9.95502C44.1131 9.51631 43.8365 9.18542 43.4828 8.96235C43.1328 8.73556 42.7302 8.62216 42.2748 8.62216C41.8157 8.62216 41.4093 8.73556 41.0556 8.96235C40.7018 9.18914 40.4234 9.52189 40.2202 9.96059C40.0207 10.3956 39.921 10.9291 39.921 11.5611C39.921 12.1895 40.0207 12.7211 40.2202 13.1561C40.4234 13.5911 40.7018 13.922 41.0556 14.1488C41.4093 14.3756 41.8157 14.489 42.2748 14.489ZM31.565 15.7103C31.4269 15.7103 31.315 15.5983 31.315 15.4603V7.65083C31.315 7.51276 31.4269 7.40083 31.565 7.40083H34.4591C35.1026 7.40083 35.6445 7.51237 36.0847 7.73544C36.525 7.95851 36.8581 8.27082 37.0838 8.67234C37.3096 9.07016 37.4225 9.53303 37.4225 10.061C37.4225 10.5889 37.3078 11.0481 37.0782 11.4384C36.8524 11.8288 36.5175 12.13 36.0735 12.3419C36.0208 12.367 35.9667 12.3907 35.9111 12.4128L37.5281 15.3394C37.6201 15.506 37.4996 15.7103 37.3092 15.7103H36.1941C36.1024 15.7103 36.018 15.66 35.9743 15.5794L34.3918 12.6598H32.8221V15.4603C32.8221 15.5983 32.7102 15.7103 32.5721 15.7103H31.565ZM34.2389 11.4273H32.8221V8.90004C32.8221 8.76197 32.9341 8.65004 33.0721 8.65004H34.2276C34.6115 8.65004 34.9238 8.70581 35.1647 8.81734C35.4093 8.92888 35.5899 9.0906 35.7065 9.30252C35.8232 9.51072 35.8815 9.76354 35.8815 10.061C35.8815 10.351 35.8232 10.5982 35.7065 10.8027C35.5899 11.0072 35.4111 11.1633 35.1703 11.2711C34.9295 11.3752 34.619 11.4273 34.2389 11.4273ZM24 15.4603C24 15.5983 24.1119 15.7103 24.25 15.7103H25.2571C25.3952 15.7103 25.5071 15.5983 25.5071 15.4603V12.8996H27.1215C27.7688 12.8996 28.3144 12.7806 28.7585 12.5426C29.2025 12.3047 29.5374 11.9794 29.7632 11.5667C29.9928 11.154 30.1075 10.6819 30.1075 10.1502C30.1075 9.62226 29.9946 9.15195 29.7689 8.73927C29.5431 8.32287 29.21 7.99569 28.7697 7.75775C28.3295 7.51981 27.7876 7.40083 27.1441 7.40083H24.25C24.1119 7.40083 24 7.51276 24 7.65083V15.4603ZM25.5071 11.6727H26.9239C27.304 11.6727 27.6145 11.6076 27.8553 11.4775C28.0999 11.3474 28.2787 11.167 28.3916 10.9365C28.5082 10.706 28.5665 10.4439 28.5665 10.1502C28.5665 9.85649 28.5082 9.59623 28.3916 9.36944C28.2787 9.14265 28.0999 8.96606 27.8553 8.83965C27.6107 8.71324 27.2965 8.65004 26.9127 8.65004H25.7571C25.6191 8.65004 25.5071 8.76197 25.5071 8.90004V11.6727Z" fill="white"/>
<defs>
<radialGradient id="paint0_radial_117_9719" cx="0" cy="0" r="1" gradientUnits="userSpaceOnUse" gradientTransform="translate(55.1441 23.5097) rotate(-156.91) scale(59.9465 43.4653)">
<stop stop-color="#0ECAD4"/>
<stop offset="1" stop-color="#7A45E5"/>
</radialGradient>
</defs>
</svg>
