<svg width="104" height="20" viewBox="0 0 104 20" fill="none" xmlns="http://www.w3.org/2000/svg">
<path fill-rule="evenodd" clip-rule="evenodd" d="M0.923096 1.52942L2.45251 0H7.35447V6.43138H0.923096V1.52942ZM7.70741 0H14.1388V4.90196L12.5702 6.43138H9.23682L7.70741 4.90196V0ZM16.0211 6.78432L14.4917 8.31373V11.6863L16.0211 13.2157H20.9231V6.78432H16.0211ZM7.70741 20H14.1388V15.098L12.5702 13.5686H9.23682L7.70741 15.098V20ZM20.9231 20V15.098L19.3937 13.5686H14.4917V20H20.9231ZM14.4917 0V4.90196L16.0211 6.43138H20.9231V0H14.4917ZM10.0211 10C10.0211 10.4706 10.4133 10.902 10.9231 10.902C11.4329 10.902 11.8251 10.5098 11.8251 10C11.8251 9.52941 11.4329 9.09804 10.9231 9.09804C10.4525 9.09804 10.0211 9.4902 10.0211 10ZM7.35447 6.78432H0.923096V13.2157H5.78584L7.35447 11.6863V6.78432ZM5.78584 13.5686L7.35447 15.098V18.4706L5.78584 20H0.923096V13.5686H5.78584Z" fill="#0ECAD4"/>
<path d="M80.4769 3.11705C80.3614 3.11705 80.2844 3.04002 80.2844 2.92447V2.11567C80.2844 2.00012 80.3614 1.9231 80.4769 1.9231H80.9389C81.0544 1.9231 81.1314 2.00012 81.1314 2.11567V2.92447C81.1314 3.04002 81.0544 3.11705 80.9389 3.11705H80.4769Z" fill="#002838"/>
<path d="M80.6309 15.4031C80.5154 15.4031 80.4384 15.3261 80.4384 15.2106V6.23672C80.4384 6.12117 80.5154 6.04414 80.6309 6.04414H80.8234C80.9389 6.04414 81.0159 6.12117 81.0159 6.23672V15.2106C81.0159 15.3261 80.9389 15.4031 80.8234 15.4031H80.6309Z" fill="#002838"/>
<path d="M33.8928 15.5957C33.7773 15.5957 33.7388 15.5572 33.7003 15.4417L32.1218 9.85707H32.0833L30.5049 15.4417C30.4664 15.5572 30.4279 15.5957 30.3124 15.5957H28.4644C28.3489 15.5957 28.3104 15.5572 28.2719 15.4417L25.5385 5.73603C25.5385 5.659 25.5385 5.58197 25.654 5.58197H28.0794C28.1949 5.58197 28.2719 5.659 28.2719 5.73603L29.5809 11.5517H29.6194L31.1593 5.73603C31.1978 5.62049 31.2363 5.58197 31.3518 5.58197H32.8533C32.9688 5.58197 33.0073 5.62049 33.0458 5.73603L34.6628 11.5517H34.7013L35.9333 5.73603C35.9333 5.659 36.0103 5.58197 36.1258 5.58197H38.5512C38.6282 5.58197 38.6667 5.659 38.6667 5.73603L35.9718 15.4417C35.9333 15.5572 35.8948 15.5957 35.7793 15.5957H33.8928Z" fill="#002838"/>
<path fill-rule="evenodd" clip-rule="evenodd" d="M40.5917 15.5957C40.5147 15.5957 40.4377 15.5187 40.4377 15.4417V5.73603C40.4377 5.659 40.5147 5.58197 40.5917 5.58197H44.5956C47.0211 5.58197 48.2915 6.96849 48.2915 8.89421C48.2915 10.8199 47.0211 12.245 44.5956 12.245H43.1326C43.0556 12.245 43.0556 12.2835 43.0556 12.322V15.4031C43.0556 15.4802 42.9786 15.5572 42.9016 15.5572H40.5917V15.5957ZM45.7121 8.93273C45.7121 8.23947 45.2501 7.81581 44.4416 7.81581H43.1326C43.0556 7.81581 43.0556 7.85432 43.0556 7.89283V10.0111C43.0556 10.0882 43.0941 10.0882 43.1326 10.0882H44.4416C45.2501 10.0882 45.7121 9.62598 45.7121 8.93273Z" fill="#002838"/>
<path fill-rule="evenodd" clip-rule="evenodd" d="M51.4485 10.6659C51.4485 11.9754 51.5255 12.6301 51.718 13.1693C52.257 14.7869 53.4119 15.5957 55.1444 15.5957C56.6074 15.5957 57.7238 14.941 58.3783 14.0166C58.4553 13.9396 58.4553 13.8241 58.3398 13.747L58.2243 13.6315C58.1473 13.5545 58.0318 13.5545 57.9549 13.67C57.3774 14.4403 56.4149 15.018 55.1059 15.018C53.7199 15.018 52.6804 14.4018 52.2184 12.9767C52.0645 12.4761 51.9875 11.8983 51.9875 10.8584C51.9875 10.7814 52.026 10.7044 52.103 10.7044H58.3783C58.5323 10.7044 58.6093 10.6274 58.6093 10.5118C58.6093 9.31787 58.5323 8.70164 58.3398 8.16244C57.8394 6.58335 56.6459 5.77454 55.0289 5.77454C53.4504 5.77454 52.2185 6.58335 51.718 8.16244C51.564 8.70164 51.4485 9.3949 51.4485 10.6659ZM58.0703 10.0496C58.0703 10.1267 58.0318 10.1652 57.9549 10.1652H52.18C52.103 10.1652 52.0645 10.1267 52.0645 10.0496C52.0645 9.35638 52.1415 8.8557 52.2955 8.39353C52.7189 7.00701 53.7199 6.35225 55.0674 6.35225C56.4149 6.35225 57.4159 7.04552 57.8393 8.39353C57.9933 8.8557 58.0703 9.3949 58.0703 10.0496Z" fill="#002838"/>
<path d="M67.5412 15.4031C67.4257 15.4031 67.3487 15.3261 67.3487 15.2106V9.58748C67.3487 7.35364 66.4247 6.39077 64.6152 6.39077C63.0368 6.39077 61.7278 7.46918 61.7278 9.31787V15.2491C61.7278 15.3646 61.6508 15.4417 61.5353 15.4417H61.3428C61.2273 15.4417 61.1503 15.3646 61.1503 15.2491V6.27523C61.1503 6.15969 61.2273 6.08266 61.3428 6.08266H61.5353C61.6508 6.08266 61.7278 6.15969 61.7278 6.27523V7.58472H61.7663C62.2283 6.50632 63.3062 5.85157 64.6537 5.85157C66.7712 5.85157 67.9647 7.04552 67.9647 9.47193V15.2491C67.9647 15.3646 67.8877 15.4417 67.7722 15.4417H67.5412V15.4031Z" fill="#002838"/>
<path fill-rule="evenodd" clip-rule="evenodd" d="M70.8136 17.56C70.6981 17.5985 70.6981 17.714 70.7751 17.8296C71.2371 18.5613 72.3536 19.1776 73.7011 19.2161C75.857 19.2161 77.243 18.0606 77.243 15.4802V6.27523C77.243 6.15969 77.166 6.08266 77.0505 6.08266H76.858C76.7425 6.08266 76.6655 6.15969 76.6655 6.27523V7.62324H76.627C76.165 6.58335 75.3565 5.85157 73.7011 5.85157C72.1226 5.85157 71.0446 6.69888 70.5826 8.0854C70.3901 8.74015 70.2746 9.58748 70.2746 10.7429C70.2746 11.8983 70.3516 12.7457 70.5826 13.4004C71.0446 14.7869 72.1226 15.6342 73.7011 15.6342C75.3565 15.6342 76.165 14.9025 76.627 13.8626H76.6655V15.4417C76.6655 17.7525 75.5105 18.6384 73.7396 18.6384C72.5846 18.6384 71.7761 18.2147 71.2371 17.5214C71.1601 17.4059 71.0831 17.3674 70.9676 17.4444L70.8136 17.56ZM76.6655 10.7044C76.6655 11.8983 76.5885 12.5916 76.396 13.1693C75.9725 14.5558 74.933 15.0565 73.778 14.9795C72.5076 14.9795 71.6221 14.3633 71.1986 13.1308C71.0061 12.5531 70.8906 11.7443 70.8906 10.6659C70.8906 9.58747 71.0061 8.77867 71.1986 8.20095C71.5836 6.96849 72.5076 6.35225 73.778 6.35225C74.933 6.35225 75.934 6.85295 76.396 8.23947C76.5885 8.81719 76.6655 9.54896 76.6655 10.7044Z" fill="#002838"/>
<path d="M90.4097 15.2106C90.4097 15.3261 90.4867 15.4031 90.6022 15.4031V15.4417H90.8332C90.9487 15.4417 91.0257 15.3646 91.0257 15.2491V9.47193C91.0257 7.04552 89.8323 5.85157 87.7148 5.85157C86.3673 5.85157 85.2893 6.50632 84.8273 7.58472H84.7888V6.27523C84.7888 6.15969 84.7118 6.08266 84.5963 6.08266H84.4039C84.2884 6.08266 84.2114 6.15969 84.2114 6.27523V15.2491C84.2114 15.3646 84.2884 15.4417 84.4039 15.4417H84.5963C84.7118 15.4417 84.7888 15.3646 84.7888 15.2491V9.31787C84.7888 7.46918 86.0978 6.39077 87.6763 6.39077C89.4858 6.39077 90.4097 7.35364 90.4097 9.58748V15.2106Z" fill="#002838"/>
<path fill-rule="evenodd" clip-rule="evenodd" d="M93.6437 13.1693C93.4512 12.6301 93.3742 11.9754 93.3742 10.6659C93.3742 9.3949 93.4897 8.70164 93.6437 8.16244C94.1442 6.58335 95.3761 5.77454 96.9546 5.77454C98.5716 5.77454 99.7651 6.58335 100.266 8.16244C100.458 8.70164 100.535 9.31787 100.535 10.5118C100.535 10.6274 100.458 10.7044 100.304 10.7044H94.0672C93.9902 10.7044 93.9517 10.7814 93.9517 10.8584C93.9517 11.8983 94.0287 12.4761 94.1827 12.9767C94.6447 14.4018 95.6841 15.018 97.0701 15.018C98.3791 15.018 99.3416 14.4403 99.9191 13.67C99.9961 13.5545 100.112 13.5545 100.189 13.6315L100.304 13.747C100.42 13.8241 100.42 13.9396 100.343 14.0166C99.6881 14.941 98.5716 15.5957 97.1086 15.5957C95.3376 15.5957 94.1442 14.7869 93.6437 13.1693ZM99.8421 10.1652C99.9191 10.1652 99.9576 10.1267 99.9576 10.0496C99.9576 9.3949 99.8806 8.8557 99.7266 8.39353C99.3031 7.04552 98.3021 6.35225 96.9546 6.35225C95.6071 6.35225 94.6062 7.00701 94.1827 8.39353C94.0287 8.8557 93.9517 9.35638 93.9517 10.0496C93.9517 10.1267 93.9902 10.1652 94.0672 10.1652H99.8421Z" fill="#002838"/>
<path fill-rule="evenodd" clip-rule="evenodd" d="M102.422 7.5462C102.422 7.58472 102.422 7.58472 102.46 7.58472H102.537C102.537 7.58472 102.576 7.58472 102.576 7.5462V7.08404H102.845L103.115 7.58472C103.134 7.58472 103.143 7.59435 103.153 7.60398C103.163 7.61361 103.172 7.62324 103.192 7.62324H103.307C103.346 7.62324 103.384 7.58472 103.346 7.5462L103.076 7.04552C103.269 7.00701 103.346 6.85295 103.346 6.69889C103.346 6.46781 103.191 6.31375 102.922 6.31375H102.46C102.441 6.31375 102.431 6.31375 102.426 6.31856C102.422 6.32337 102.422 6.333 102.422 6.35225V7.5462ZM102.922 6.50632C103.076 6.50632 103.153 6.58335 103.153 6.69889C103.153 6.81444 103.076 6.89147 102.922 6.89147H102.614V6.50632H102.922Z" fill="#002838"/>
<path fill-rule="evenodd" clip-rule="evenodd" d="M102.845 5.81305C102.191 5.81305 101.69 6.31374 101.69 6.96849C101.69 7.62323 102.191 8.12392 102.845 8.12392C103.499 8.12392 104 7.62323 104 6.96849C104 6.31374 103.499 5.81305 102.845 5.81305ZM102.845 6.00563C103.384 6.00563 103.807 6.39077 103.807 6.96849C103.807 7.50769 103.384 7.93135 102.845 7.93135C102.306 7.93135 101.883 7.5462 101.883 6.96849C101.883 6.42929 102.268 6.00563 102.845 6.00563Z" fill="#002838"/>
</svg>
