<svg width="18" height="17" viewBox="0 0 18 17" fill="none" xmlns="http://www.w3.org/2000/svg">
<path d="M0.999607 10C1.67043 10.3354 1.6703 10.3357 1.67017 10.3359L1.67298 10.3305C1.67621 10.3242 1.68184 10.3135 1.68988 10.2985C1.70595 10.2686 1.7316 10.2218 1.76695 10.1608C1.8377 10.0385 1.94692 9.8592 2.09541 9.6419C2.39312 9.2062 2.84436 8.624 3.45435 8.0431C4.67308 6.88241 6.49719 5.75 8.9996 5.75C11.502 5.75 13.3261 6.88241 14.5449 8.0431C15.1549 8.624 15.6061 9.2062 15.9038 9.6419C16.0523 9.8592 16.1615 10.0385 16.2323 10.1608C16.2676 10.2218 16.2933 10.2686 16.3093 10.2985C16.3174 10.3135 16.323 10.3242 16.3262 10.3305L16.3291 10.3359C16.3289 10.3357 16.3288 10.3354 16.9996 10C17.6704 9.6646 17.6703 9.6643 17.6701 9.664L17.6688 9.6614L17.6662 9.6563L17.6583 9.6408C17.6517 9.6282 17.6427 9.6108 17.631 9.5892C17.6078 9.5459 17.5744 9.4852 17.5306 9.4096C17.4432 9.2584 17.3141 9.0471 17.1423 8.7956C16.7994 8.2938 16.2819 7.626 15.5794 6.9569C14.1731 5.61759 11.9972 4.25 8.9996 4.25C6.00203 4.25 3.82614 5.61759 2.41987 6.9569C1.71736 7.626 1.19984 8.2938 0.856937 8.7956C0.685107 9.0471 0.556047 9.2584 0.468597 9.4096C0.424837 9.4852 0.391417 9.5459 0.368177 9.5892C0.356557 9.6108 0.347477 9.6282 0.340917 9.6408L0.332967 9.6563L0.330407 9.6614L0.329477 9.6632C0.329307 9.6635 0.328787 9.6646 0.999607 10ZM8.9996 13C10.9326 13 12.4996 11.433 12.4996 9.5C12.4996 7.567 10.9326 6 8.9996 6C7.0666 6 5.49961 7.567 5.49961 9.5C5.49961 11.433 7.0666 13 8.9996 13Z" fill="#1E1E1E"/>
<rect x="12.317" y="1.31699" width="2" height="16" transform="rotate(30 12.317 1.31699)" fill="#1E1E1E" stroke="white"/>
</svg>
