<svg width="16" height="16" viewBox="0 0 16 16" fill="none" xmlns="http://www.w3.org/2000/svg">
<path d="M7.16671 8.83337V3.83337H8.83337V8.83337H7.16671Z" fill="white"/>
<path d="M7.16671 10.5V12.1667H8.83337V10.5H7.16671Z" fill="white"/>
<path fill-rule="evenodd" clip-rule="evenodd" d="M15.2917 8.00004C15.2917 12.0271 12.0271 15.2917 8.00004 15.2917C3.97296 15.2917 0.708374 12.0271 0.708374 8.00004C0.708374 3.97296 3.97296 0.708374 8.00004 0.708374C12.0271 0.708374 15.2917 3.97296 15.2917 8.00004ZM8.00004 14.0417C11.3368 14.0417 14.0417 11.3368 14.0417 8.00004C14.0417 4.66332 11.3368 1.95837 8.00004 1.95837C4.66332 1.95837 1.95837 4.66332 1.95837 8.00004C1.95837 11.3368 4.66332 14.0417 8.00004 14.0417Z" fill="white"/>
</svg>