<svg width="18" height="18" viewBox="0 0 18 18" fill="none" xmlns="http://www.w3.org/2000/svg">
    <path d="M11.9995 1.5V3H11.2495V5.43218C11.2495 6.30038 11.438 7.15824 11.8018 7.94655L15.0128 14.9036C15.2731 15.4677 15.0268 16.1361 14.4627 16.3964C14.3149 16.4647 14.1541 16.5 13.9913 16.5H4.00781C3.38649 16.5 2.88281 15.9963 2.88281 15.375C2.88281 15.2122 2.91814 15.0514 2.98636 14.9036L6.19729 7.94655C6.56112 7.15824 6.74954 6.30038 6.74954 5.43218V3H5.99954V1.5H11.9995ZM10.0405 7.5009H7.95862C7.8804 7.7733 7.78672 8.04157 7.67782 8.3043L7.55925 8.57513L4.59329 15H13.4051L10.4398 8.57513C10.279 8.22683 10.1457 7.86765 10.0405 7.5009ZM8.24955 5.43218C8.24955 5.62219 8.24235 5.81182 8.22795 6.00065H9.77115C9.76417 5.90986 9.75892 5.81889 9.7554 5.72778L9.74955 5.43218V3H8.24955V5.43218Z" fill="#73858C"/>
</svg>