<svg viewBox="0 0 24 24" fill="none" xmlns="http://www.w3.org/2000/svg">
<path d="M8 9H8.01C8.56 9 9.01 8.55 9.01 8C9.01 7.44 8.56 7 8.01 7H8C7.44 7 7 7.44 7 8C7 8.55 7.44 9 8 9ZM0.999997 5.2V9.67C0.999997 10.37 0.999997 10.55 1.08 10.86C1.15 11.16 1.27 11.45 1.43 11.72C1.59 11.99 1.72 12.12 2.21 12.62L9.87 20.28C11.49 21.9 11.91 22.26 12.73 22.52C13.53 22.78 14.39 22.78 15.2 22.51C15.33 22.46 15.46 22.41 15.59 22.35C16.24 22.03 16.63 21.68 18.05 20.26L20.26 18.04C21.68 16.61 22.03 16.22 22.34 15.57C22.4 15.44 22.45 15.3 22.49 15.17C22.75 14.36 22.75 13.5 22.48 12.69C22.21 11.87 21.85 11.45 20.23 9.82L12.56 2.15C12.06 1.65 11.92 1.52 11.65 1.36C11.38 1.19 11.08 1.07 10.78 1C10.46 0.920004 10.28 0.910004 9.58 0.910004H5.1C3.49 0.910004 3.11 0.940004 2.53 1.23C1.96 1.51 1.5 1.97 1.21 2.54C0.909997 3.12 0.879997 3.5 0.879997 5.1L0.999997 5.2ZM3 5.2C3 4 3.02 3.71 3.1 3.54C3.19 3.35 3.34 3.19 3.53 3.1C3.69 3.01 3.98 2.99 5.18 2.99H9.65C10.16 2.99 10.28 2.99 10.38 3.01C10.48 3.03 10.57 3.07 10.66 3.12C10.74 3.16 10.82 3.25 11.19 3.61L18.85 11.27C20.19 12.61 20.48 12.95 20.61 13.33C20.74 13.73 20.74 14.16 20.61 14.56C20.59 14.6 20.57 14.65 20.55 14.7C20.37 15.05 20.06 15.4 18.84 16.62L16.62 18.83C15.4 20.04 15.05 20.35 14.69 20.53C14.64 20.55 14.59 20.57 14.54 20.58C14.13 20.71 13.7 20.71 13.3 20.58C12.92 20.45 12.57 20.16 11.23 18.81L3.56 11.14C3.19 10.77 3.11 10.68 3.06 10.6C3 10.51 2.96 10.41 2.94 10.31C2.91 10.21 2.91 10.09 2.91 9.57V5.09L3 5.2ZM7.5 8C7.5 7.72 7.72 7.5 8 7.5C8.27 7.5 8.5 7.72 8.5 8C8.5 8.27 8.27 8.5 8 8.5C7.72 8.5 7.5 8.27 7.5 8ZM9.5 8C9.5 7.17 8.82 6.5 8 6.5C7.17 6.5 6.5 7.17 6.5 8C6.5 8.82 7.17 9.5 8 9.5C8.82 9.5 9.5 8.82 9.5 8Z" fill="#475467"/>
</svg>
