<svg viewBox="0 0 24 24" xmlns="http://www.w3.org/2000/svg"><path d="M17.5 16h-11c-.56 0-1 .44-1 1 0 .55.44 1 1 1h11c.55 0 1-.45 1-1 0-.56-.45-1-1-1Zm0-4h-11c-.56 0-1 .44-1 1 0 .55.44 1 1 1h11c.55 0 1-.45 1-1 0-.56-.45-1-1-1ZM3 10h18c.55 0 1-.45 1-1 0-.56-.45-1-1-1H3c-.56 0-1 .44-1 1 0 .55.44 1 1 1Zm4.8-6h8.4c1.89 0 2.35.03 2.7.21 .37.19.68.49.87.87 .18.35.21.8.21 2.7v8.4c0 1.89-.04 2.35-.22 2.7 -.2.37-.5.68-.88.87 -.36.18-.81.21-2.71.21h-8.4c-1.9 0-2.36-.04-2.71-.22 -.38-.2-.69-.5-.88-.88 -.19-.36-.22-.81-.22-2.71v-8.4c0-1.9.03-2.36.21-2.71 .19-.38.49-.69.87-.88 .35-.19.8-.22 2.7-.22Zm0-2c-2.31 0-2.85.04-3.62.43 -.76.38-1.37.99-1.75 1.74 -.4.76-.44 1.31-.44 3.61v8.4c0 2.3.04 2.84.43 3.61 .38.75.99 1.36 1.74 1.74 .76.39 1.31.43 3.61.43h8.4c2.3 0 2.84-.05 3.61-.44 .75-.39 1.36-1 1.74-1.75 .39-.77.43-1.32.43-3.62v-8.4c0-2.31-.05-2.85-.44-3.62 -.39-.76-1-1.37-1.75-1.75 -.77-.4-1.32-.44-3.62-.44h-8.4Z"/></svg>