<svg width="32" height="32" viewBox="0 0 32 32" fill="none" xmlns="http://www.w3.org/2000/svg">
    <g transform="translate(4,3)">
        <path fill-rule="evenodd" clip-rule="evenodd" d="M12 5.5C11.5346 5.49986 11.0806 5.64404 10.7006 5.91269C10.3205 6.18133 10.0331 6.56121 9.878 7H14.122C13.9667 6.56129 13.6793 6.18149 13.2993 5.91287C12.9193 5.64425 12.4654 5.50001 12 5.5ZM12 4C11.1356 4.00001 10.2977 4.29859 9.62801 4.84525C8.95836 5.3919 8.49807 6.15306 8.325 7H5V8.5H6.27L7.088 17.497C7.15014 18.1805 7.46559 18.816 7.97239 19.2788C8.47919 19.7415 9.14071 19.9981 9.827 19.998H14.174C14.86 19.9978 15.5211 19.7413 16.0277 19.2788C16.5342 18.8163 16.8496 18.1811 16.912 17.498L17.73 8.5H19V7H15.675C15.5019 6.15306 15.0416 5.3919 14.372 4.84525C13.7023 4.29859 12.8644 4.00001 12 4ZM16.224 8.5H7.776L8.582 17.361C8.6102 17.6717 8.75357 17.9606 8.98394 18.171C9.21431 18.3814 9.51502 18.498 9.827 18.498H14.174C14.486 18.498 14.7867 18.3814 15.0171 18.171C15.2474 17.9606 15.3908 17.6717 15.419 17.361L16.224 8.5Z" fill="#B80F38"/>
    </g>
</svg>
