<svg viewBox="0 0 24 24" xmlns="http://www.w3.org/2000/svg"><g fill="#292D32"><path d="M12 22.75C6.07 22.75 1.25 17.93 1.25 12 1.25 6.07 6.07 1.25 12 1.25c5.93 0 10.75 4.82 10.75 10.75s-4.82 10.75-10.75 10.75Zm0-20C6.9 2.75 2.75 6.9 2.75 12c0 5.1 4.15 9.25 9.25 9.25s9.25-4.15 9.25-9.25 -4.15-9.25-9.25-9.25Z"/><path d="M9.16 15.57c-.19 0-.38-.07-.53-.22 -.29-.29-.29-.77 0-1.06l5.66-5.67c.29-.29.77-.29 1.06 0 .29.29.29.77 0 1.06l-5.67 5.66c-.14.15-.34.22-.53.22Z"/><path d="M14.82 15.57c-.19 0-.38-.07-.53-.22L8.62 9.68c-.29-.29-.29-.77 0-1.06 .28-.29.76-.29 1.05 0l5.66 5.66c.29.29.29.77 0 1.06 -.15.15-.34.22-.53.22Z"/></g></svg>