<svg viewBox="0 0 24 24" fill="none" xmlns="http://www.w3.org/2000/svg">
<path fill-rule="evenodd" clip-rule="evenodd" d="M4.59999 2H8.39999L8.33999 1.94C9.23999 1.94 9.44999 1.95 9.84999 2.16C10.23 2.35 10.53 2.66 10.73 3.04C10.93 3.43 10.95 3.64 10.95 4.55V8.35C10.95 9.25 10.94 9.46 10.74 9.86C10.55 10.24 10.24 10.54 9.86999 10.74C9.47999 10.94 9.26999 10.96 8.36999 10.96H4.56999C3.66999 10.96 3.45999 10.95 3.06999 10.75C2.68999 10.56 2.38999 10.25 2.19999 9.88C1.99999 9.49 1.98999 9.28 1.98999 8.38V4.58C1.98999 3.68 1.99999 3.47 2.20999 3.08C2.39999 2.7 2.70999 2.4 3.08999 2.21C3.47999 2.01 3.68999 2 4.59999 2ZM8.9965 4H8.39999L8.33999 3.94H4.53999H3.94999C3.94999 3.945 3.94749 3.9475 3.94624 3.94875C3.94579 3.94921 3.9455 3.9495 3.94555 3.94968C3.94565 3.95 3.94681 3.95 3.94999 3.95V4.56V8.36V8.96C3.95999 8.96 3.95999 8.97 3.95999 8.97C3.94999 8.97 4.06999 8.98 4.56999 8.98H8.36999C8.82622 8.98 8.96169 8.98 8.97013 8.98807C8.97132 8.98005 8.97999 8.98069 8.97999 8.99C8.97999 9 8.98999 8.88 8.98999 8.39V4.59C8.98999 4.16525 8.98999 4.01852 8.9965 4ZM15.6 2H19.4L19.34 1.94C20.24 1.94 20.45 1.95 20.85 2.16C21.23 2.35 21.53 2.66 21.73 3.04C21.93 3.43 21.95 3.64 21.95 4.55V8.35C21.95 9.25 21.94 9.46 21.74 9.86C21.55 10.24 21.24 10.54 20.87 10.74C20.48 10.94 20.27 10.96 19.37 10.96H15.57C14.67 10.96 14.46 10.95 14.07 10.75C13.69 10.56 13.39 10.25 13.2 9.88C13 9.49 12.99 9.28 12.99 8.38V4.58C12.99 3.68 13 3.47 13.21 3.08C13.4 2.7 13.71 2.4 14.09 2.21C14.48 2.01 14.69 2 15.6 2ZM19.9956 3.99371C19.9681 4 19.8199 4 19.4 4L19.34 3.94H15.54C15.04 3.94 14.92 3.95 14.94 3.95C14.945 3.95 14.9475 3.95 14.9487 3.95125C14.95 3.9525 14.95 3.955 14.95 3.96C14.96 3.94 14.96 4.06 14.96 4.56V8.36V8.96L14.97 8.97C14.9646 8.96458 14.9974 8.96504 15.1084 8.9666H15.1084H15.1084H15.1084C15.202 8.96791 15.3513 8.97 15.58 8.97H19.38C19.6087 8.97 19.7579 8.96791 19.8515 8.9666H19.8516C19.9354 8.96542 19.9746 8.96488 19.9865 8.96701C19.985 8.95442 19.9855 8.91727 19.9866 8.84389V8.84372V8.84368V8.84362C19.9879 8.75241 19.99 8.60533 19.99 8.38V4.58C19.99 4.17625 19.99 4.02371 19.9956 3.99371ZM19.4 13H15.6C14.69 13 14.48 13.01 14.09 13.21C13.71 13.4 13.4 13.7 13.21 14.08C13 14.47 12.99 14.68 12.99 15.58V19.38C12.99 20.28 13 20.49 13.2 20.88C13.39 21.25 13.69 21.56 14.07 21.75C14.46 21.95 14.67 21.96 15.57 21.96H19.37C20.27 21.96 20.48 21.94 20.87 21.74C21.24 21.54 21.55 21.24 21.74 20.86C21.94 20.46 21.95 20.25 21.95 19.35V15.55C21.95 14.64 21.93 14.43 21.73 14.04C21.53 13.66 21.23 13.35 20.85 13.16C20.45 12.95 20.24 12.94 19.34 12.94L19.4 13ZM19.4 15C19.8001 15 19.9535 15 19.9854 14.9946C19.98 15.0265 19.98 15.1799 19.98 15.58V19.38C19.98 19.6054 19.9779 19.7525 19.9766 19.8437V19.8437V19.8439C19.9754 19.9244 19.9749 19.9613 19.977 19.97H19.97C19.98 19.96 19.86 19.96 19.37 19.96H15.57C15.3397 19.96 15.19 19.9579 15.0975 19.9566L15.0973 19.9566C15.0039 19.9552 14.9688 19.9547 14.9679 19.9581C14.9663 19.9567 14.9649 19.9559 14.9639 19.9555C14.9619 19.9547 14.9609 19.9552 14.9604 19.9549C14.96 19.9546 14.96 19.9536 14.96 19.95V19.35V15.55C14.96 15.05 14.96 14.93 14.95 14.95C14.95 14.945 14.9475 14.9425 14.9462 14.9413C14.9458 14.9408 14.9455 14.9405 14.9456 14.9403C14.9457 14.94 14.9468 14.94 14.95 14.94H15.54H19.34L19.4 15ZM4.59999 13H8.39999L8.33999 12.94C9.23999 12.94 9.44999 12.95 9.84999 13.16C10.23 13.35 10.53 13.66 10.73 14.04C10.93 14.43 10.95 14.64 10.95 15.55V19.35C10.95 20.25 10.94 20.46 10.74 20.86C10.55 21.24 10.24 21.54 9.86999 21.74C9.47999 21.94 9.26999 21.96 8.36999 21.96H4.56999C3.66999 21.96 3.45999 21.95 3.06999 21.75C2.68999 21.56 2.38999 21.25 2.19999 20.88C1.99999 20.49 1.98999 20.28 1.98999 19.38V15.58C1.98999 14.68 1.99999 14.47 2.20999 14.08C2.39999 13.7 2.70999 13.4 3.08999 13.21C3.47999 13.01 3.68999 13 4.59999 13ZM8.98579 14.9945C8.95462 15 8.80156 15 8.39999 15L8.33999 14.94H4.53999H3.94999C3.94452 14.9455 3.94205 14.9479 3.94256 14.9491C3.94298 14.95 3.94546 14.95 3.94999 14.95C3.95999 14.94 3.95999 15.06 3.95999 15.56V19.36C3.95999 19.86 3.96999 19.98 3.96999 19.97C3.96999 19.9655 3.96999 19.963 3.97092 19.9626C3.97205 19.9621 3.97452 19.9645 3.97999 19.97C3.9692 19.9646 3.99914 19.965 4.10746 19.9666C4.19997 19.9679 4.34966 19.97 4.57999 19.97H8.37999C8.86999 19.97 8.98999 19.97 8.97999 19.98C8.98301 19.977 8.98511 19.9749 8.98659 19.9737C8.98493 19.9591 8.98549 19.9199 8.98659 19.8428C8.9879 19.7505 8.98999 19.6039 8.98999 19.38V15.58C8.98999 15.3497 8.98787 15.2 8.98656 15.1075C8.98573 15.0488 8.98522 15.0132 8.98579 14.9945Z" fill="#475467"/>
</svg>
