<svg viewBox="0 0 24 24" xmlns="http://www.w3.org/2000/svg"><path fill-rule="evenodd" d="M12 23c6.07 0 11-4.93 11-11 0-6.08-4.93-11-11-11C5.92 1 1 5.92 1 12c0 6.07 4.92 11 11 11Zm2.27-19.72c.96 1.44 1.68 3.03 2.14 4.71h3.64c-1.15-2.31-3.25-4.05-5.8-4.72Zm-2.28.26c1.03 1.33 1.82 2.84 2.33 4.44H9.64c.5-1.61 1.29-3.11 2.33-4.45Zm2.99 8.44c-.02-.68-.08-1.35-.19-2H9.16c-.11.65-.18 1.32-.19 2 .01.67.07 1.34.18 2h5.62c.1-.66.17-1.33.18-2Zm-.67 4H9.63c.5 1.6 1.29 3.1 2.33 4.44 1.03-1.34 1.82-2.85 2.33-4.45Zm-7.18-2c-.1-.66-.15-1.32-.17-1.98 -.01-.02-.01-.03 0-.05 .01-.67.06-1.33.16-1.98H3.18c-.15.64-.23 1.31-.23 2 0 .68.07 1.35.22 2H7.1Zm-3.23 2h3.64c.45 1.67 1.18 3.26 2.14 4.71 -2.55-.67-4.65-2.41-5.8-4.72Zm12.48 0h3.64c-1.15 2.3-3.25 4.04-5.8 4.71 .96-1.45 1.68-3.04 2.14-4.72Zm4.35-2h-3.94c.09-.66.14-1.32.16-1.98 0-.02 0-.03 0-.05 -.02-.67-.07-1.33-.17-1.98h3.93c.14.64.22 1.31.22 2 0 .68-.08 1.35-.23 2ZM9.67 3.26C8.7 4.7 7.98 6.29 7.52 7.97H3.87c1.14-2.31 3.24-4.05 5.79-4.72Z"/></svg>