<svg viewBox="0 0 24 24" xmlns="http://www.w3.org/2000/svg"><g stroke-linecap="round" stroke-width="2" stroke="#000" fill="none" stroke-linejoin="round"><path d="M12 15c1.65 0 3-1.35 3-3 0-1.66-1.35-3-3-3 -1.66 0-3 1.34-3 3 0 1.65 1.34 3 3 3Z"/><path d="M18.72 14.72c-.13.27-.16.57-.11.87 .05.29.19.56.4.78l.05.05c.16.16.3.36.39.59 .09.22.13.45.13.69 0 .23-.05.47-.14.69 -.1.22-.23.42-.4.59 -.17.16-.37.3-.6.39 -.23.09-.46.13-.7.13 -.24 0-.48-.05-.7-.14 -.23-.1-.43-.23-.6-.4l-.06-.06c-.22-.21-.49-.36-.79-.41 -.3-.06-.6-.02-.88.1 -.27.11-.5.3-.66.55 -.17.24-.25.52-.25.82v.15c0 .48-.2.94-.54 1.28 -.35.34-.81.53-1.29.53 -.49 0-.95-.2-1.29-.54 -.35-.35-.54-.81-.54-1.29V20c-.01-.31-.11-.6-.28-.84 -.18-.25-.42-.44-.71-.54 -.28-.13-.58-.16-.88-.11 -.3.05-.57.19-.79.4l-.06.05c-.17.16-.37.3-.6.39 -.23.09-.46.13-.7.13 -.24 0-.48-.05-.7-.14 -.23-.1-.43-.23-.6-.4 -.17-.17-.31-.37-.4-.6 -.1-.23-.14-.46-.14-.7 0-.24.04-.48.13-.7 .09-.23.22-.43.39-.6l.05-.06c.2-.22.35-.49.4-.79 .05-.3.01-.6-.11-.88 -.12-.27-.31-.5-.56-.66 -.25-.17-.53-.25-.83-.25h-.16c-.49 0-.95-.2-1.29-.54 -.35-.35-.54-.81-.54-1.29 0-.49.19-.95.53-1.29 .34-.35.8-.54 1.28-.54h.08c.3-.01.59-.11.83-.28 .24-.18.43-.42.53-.71 .12-.28.15-.58.1-.88 -.06-.3-.2-.57-.41-.79l-.06-.06c-.17-.17-.31-.37-.4-.6 -.1-.23-.14-.46-.14-.7 0-.24.04-.48.13-.7 .09-.23.22-.43.39-.6 .16-.17.36-.31.59-.4 .22-.1.45-.14.69-.14 .23 0 .47.04.69.13 .22.09.42.22.59.39l.05.05c.21.2.48.35.78.4 .29.05.59.01.87-.11h.07c.26-.12.49-.31.65-.56 .16-.25.24-.53.24-.83v-.16c0-.49.19-.95.53-1.29 .34-.35.8-.54 1.28-.54s.94.19 1.28.53c.34.34.53.8.53 1.28v.08c0 .29.08.57.24.82 .16.24.39.43.65.55 .27.12.57.15.87.1 .29-.06.56-.2.78-.41l.05-.06c.16-.17.36-.31.59-.4 .22-.1.45-.14.69-.14 .23 0 .47.04.69.13 .22.09.42.22.59.39 .16.16.3.36.39.59 .09.22.13.45.13.69 0 .23-.05.47-.14.69 -.1.22-.23.42-.4.59l-.06.05c-.21.21-.36.48-.41.78 -.06.29-.02.59.1.87v.07c.11.26.3.49.55.65 .24.16.52.24.82.24h.15c.48 0 .94.19 1.28.53 .34.34.53.8.53 1.28s-.2.94-.54 1.28c-.35.34-.81.53-1.29.53h-.09c-.3 0-.58.08-.83.24 -.25.16-.44.39-.56.65Z"/></g></svg>