<svg viewBox="0 0 24 24" fill="none" xmlns="http://www.w3.org/2000/svg">
<path d="M11.0539 9.38846V13.2977C11.0539 13.8352 11.4839 14.275 12.0312 14.275C12.5687 14.275 13.0085 13.8352 13.0085 13.2977V9.37869C13.0085 8.8314 12.5687 8.40138 12.0312 8.40138C11.4839 8.40138 11.0539 8.8314 11.0539 9.37869V9.38846ZM12.0312 18.1843H12.041C12.5785 18.1843 13.0183 17.7445 13.0183 17.2069C13.0183 16.6597 12.5785 16.2296 12.041 16.2296H12.0312C11.4839 16.2296 11.0539 16.6597 11.0539 17.2069C11.0539 17.7445 11.4839 18.1843 12.0312 18.1843ZM9.82247 3.90575L1.7792 17.7836C1.06577 19.0052 0.948491 19.2495 1.0169 19.8457C1.06577 20.393 1.35896 20.8914 1.80852 21.2237C2.28741 21.5657 2.55128 21.5951 3.96838 21.5951H20.0354C21.4427 21.5951 21.7163 21.5657 22.1952 21.2139C22.635 20.8816 22.9282 20.3832 22.9868 19.8261C23.0455 19.23 22.9282 18.9856 22.2245 17.7542L14.1813 3.86666C13.4678 2.64502 13.3115 2.42024 12.7739 2.17592C12.2657 1.94136 11.6891 1.94136 11.1809 2.17592C10.6336 2.41047 10.4773 2.63525 9.7736 3.85689L9.82247 3.90575ZM11.5132 4.88306C11.9139 4.1794 12.0507 3.98394 12.0116 4.00349C12.0116 3.99371 12.0116 3.99371 12.0116 3.99371C11.9725 3.97417 12.1094 4.16963 12.5101 4.86352L20.5436 18.7413C20.9443 19.4352 21.042 19.6502 21.0518 19.6209C21.0518 19.6111 21.042 19.6111 21.042 19.6209C21.0713 19.5916 20.827 19.6111 20.0158 19.6111H3.93906C3.12789 19.6111 2.88356 19.5818 2.91288 19.6111C2.90311 19.6014 2.90311 19.6014 2.90311 19.6014C2.90311 19.6307 3.00084 19.4157 3.41131 18.712L11.4448 4.82443L11.5132 4.88306Z" fill="#D13737"/>
</svg>
