<svg viewBox="0 0 24 24" xmlns="http://www.w3.org/2000/svg"><path d="M18 11V8c0-3.32-2.69-6-6-6C8.68 2 6 4.68 6 8v3c0 .55.44 1 1 1 .55 0 1-.45 1-1V8c0-2.21 1.79-4 4-4 2.2 0 4 1.79 4 4v3c0 .55.44 1 1 1 .55 0 1-.45 1-1ZM8.8 22h6.4c2.3 0 2.84-.05 3.61-.44 .75-.39 1.36-1 1.74-1.75 .39-.77.43-1.32.43-3.62v-.4c0-2.31-.05-2.85-.44-3.62 -.39-.76-1-1.37-1.75-1.75 -.77-.4-1.32-.44-3.62-.44h-6.4c-2.31 0-2.85.04-3.62.43 -.76.38-1.37.99-1.75 1.74 -.4.76-.44 1.31-.44 3.61v.4c0 2.3.04 2.84.43 3.61 .38.75.99 1.36 1.74 1.74 .76.39 1.31.43 3.61.43Zm0-2c-1.9 0-2.36-.04-2.71-.22 -.38-.2-.69-.5-.88-.88 -.19-.36-.22-.81-.22-2.71v-.4c0-1.9.03-2.36.21-2.71 .19-.38.49-.69.87-.88 .35-.19.8-.22 2.7-.22h6.4c1.89 0 2.35.03 2.7.21 .37.19.68.49.87.87 .18.35.21.8.21 2.7v.4c0 1.89-.04 2.35-.22 2.7 -.2.37-.5.68-.88.87 -.36.18-.81.21-2.71.21h-6.4Z"/></svg>