<svg width="18" height="18" viewBox="0 0 18 18" fill="none" xmlns="http://www.w3.org/2000/svg">
<g clip-path="url(#clip0_346_12818)">
<path d="M17.3323 14.9998L10.3199 1.61248C9.92991 0.877484 9.02242 0.592487 8.29493 0.974983C8.01743 1.10998 7.79993 1.33498 7.65743 1.60498L0.645004 14.9923H0.637504C0.247508 15.7198 0.532505 16.6273 1.2675 17.0098C1.4775 17.1223 1.71749 17.1748 1.95749 17.1748H15.9748C16.7998 17.1748 17.4748 16.4998 17.4748 15.6748C17.4748 15.4273 17.4148 15.1873 17.3023 14.9773L17.3323 14.9998ZM8.24243 6.31718C8.24243 5.89718 8.57242 5.56719 8.99242 5.56719C9.40491 5.56719 9.74241 5.89718 9.74241 6.31718V10.8171C9.74241 11.2296 9.40491 11.5671 8.99242 11.5671C8.57242 11.5671 8.24243 11.2296 8.24243 10.8171V6.31718ZM9.02992 14.9496H9.00742C8.39243 14.9421 7.88243 14.4546 7.85993 13.8471C7.83743 13.2321 8.30993 12.7221 8.92492 12.6996C8.92492 12.6921 8.93242 12.6921 8.93992 12.6921H8.95492C9.56241 12.6921 10.0724 13.1721 10.0949 13.7871C10.1174 14.3946 9.63741 14.9046 9.02992 14.9346C9.01492 14.9346 9.00742 14.9346 8.99992 14.9346L9.02992 14.9496Z" fill="#F56E28"/>
</g>
<defs>
<clipPath id="clip0_346_12818">
<rect width="18" height="18" fill="white"/>
</clipPath>
</defs>
</svg>
