<svg viewBox="0 0 24 24" xmlns="http://www.w3.org/2000/svg"><path fill="none" stroke="#000" stroke-linecap="round" stroke-linejoin="round" stroke-width="2" d="M16 6v-.8c0-1.13 0-1.69-.22-2.11 -.2-.38-.5-.69-.88-.88 -.43-.22-.99-.22-2.11-.22h-1.6c-1.13 0-1.69 0-2.11.21 -.38.19-.69.49-.88.87 -.22.42-.22.98-.22 2.1v.8m2 5.5v5m4-5v5m-11-10.5h18m-2 0v11.2c0 1.68 0 2.52-.33 3.16 -.29.56-.75 1.02-1.32 1.31 -.65.32-1.49.32-3.17.32h-4.4c-1.69 0-2.53 0-3.17-.33 -.57-.29-1.03-.75-1.32-1.32 -.33-.65-.33-1.49-.33-3.17V5.94"/></svg>