<svg width="18" height="9" viewBox="0 0 18 9" fill="none" xmlns="http://www.w3.org/2000/svg">
<path d="M0.999607 6C1.67043 6.3354 1.6703 6.3357 1.67017 6.3359L1.67298 6.3305C1.67621 6.3242 1.68184 6.3135 1.68988 6.2985C1.70595 6.2686 1.7316 6.2218 1.76695 6.1608C1.8377 6.0385 1.94692 5.8592 2.09541 5.6419C2.39312 5.2062 2.84436 4.624 3.45435 4.0431C4.67308 2.88241 6.49719 1.75 8.9996 1.75C11.502 1.75 13.3261 2.88241 14.5449 4.0431C15.1549 4.624 15.6061 5.2062 15.9038 5.6419C16.0523 5.8592 16.1615 6.0385 16.2323 6.1608C16.2676 6.2218 16.2933 6.2686 16.3093 6.2985C16.3174 6.3135 16.323 6.3242 16.3262 6.3305L16.3291 6.3359C16.3289 6.3357 16.3288 6.3354 16.9996 6C17.6704 5.6646 17.6703 5.6643 17.6701 5.664L17.6688 5.6614L17.6662 5.6563L17.6583 5.6408C17.6517 5.6282 17.6427 5.6108 17.631 5.5892C17.6078 5.5459 17.5744 5.4852 17.5306 5.4096C17.4432 5.2584 17.3141 5.0471 17.1423 4.7956C16.7994 4.2938 16.2819 3.626 15.5794 2.9569C14.1731 1.61759 11.9972 0.25 8.9996 0.25C6.00203 0.25 3.82614 1.61759 2.41987 2.9569C1.71736 3.626 1.19984 4.2938 0.856937 4.7956C0.685107 5.0471 0.556047 5.2584 0.468597 5.4096C0.424837 5.4852 0.391417 5.5459 0.368177 5.5892C0.356557 5.6108 0.347477 5.6282 0.340917 5.6408L0.332967 5.6563L0.330407 5.6614L0.329477 5.6632C0.329307 5.6635 0.328787 5.6646 0.999607 6ZM8.9996 9C10.9326 9 12.4996 7.433 12.4996 5.5C12.4996 3.567 10.9326 2 8.9996 2C7.0666 2 5.49961 3.567 5.49961 5.5C5.49961 7.433 7.0666 9 8.9996 9Z" fill="#1E1E1E"/>
</svg>
