<svg viewBox="0 0 24 24" xmlns="http://www.w3.org/2000/svg"><path fill-rule="evenodd" d="M12.4 1.18c-.27-.06-.54-.06-.81 0 -.31.06-.59.21-.81.33l-.06.03 -7.4 4.11 -.07.03c-.24.12-.53.28-.75.52 -.2.2-.34.45-.43.72 -.11.31-.11.64-.11.9l0 .07V16l-.01.07c-.01.26-.01.59.1.9 .08.27.23.51.42.72 .22.24.51.4.74.52l.06.03 7.39 4.11 .05.03c.21.12.49.27.8.33 .26.05.54.05.8 0 .3-.07.58-.22.8-.34l.05-.04 7.4-4.12 .06-.04c.23-.13.52-.29.74-.53 .19-.21.33-.46.42-.73 .1-.32.1-.65.1-.91l-.01-.08V7.8l0-.08c0-.27 0-.6-.11-.91 -.09-.28-.24-.52-.43-.73 -.23-.25-.52-.41-.75-.53l-.07-.04 -7.4-4.12 -.06-.04c-.22-.13-.5-.28-.81-.34Zm.59 6.81c0-.56-.45-1-1-1 -.56 0-1 .44-1 1v4c0 .55.44 1 1 1 .55 0 1-.45 1-1v-4Zm-1 7c-.56 0-1 .44-1 1 0 .55.44 1 1 1H12c.55 0 1-.45 1-1 0-.56-.45-1-1-1h-.01Z"/></svg>