<svg viewBox="0 0 9 14" fill="none" xmlns="http://www.w3.org/2000/svg">
<path fill-rule="evenodd" clip-rule="evenodd" d="M1.5 0C0.671573 0 0 0.671573 0 1.5C0 2.32843 0.671573 3 1.5 3C2.32843 3 3 2.32843 3 1.5C3 0.671573 2.32843 0 1.5 0ZM7 0C6.17157 0 5.5 0.671573 5.5 1.5C5.5 2.32843 6.17157 3 7 3C7.82843 3 8.5 2.32843 8.5 1.5C8.5 0.671573 7.82843 0 7 0ZM0 7C0 6.17157 0.671573 5.5 1.5 5.5C2.32843 5.5 3 6.17157 3 7C3 7.82843 2.32843 8.5 1.5 8.5C0.671573 8.5 0 7.82843 0 7ZM7 5.5C6.17157 5.5 5.5 6.17157 5.5 7C5.5 7.82843 6.17157 8.5 7 8.5C7.82843 8.5 8.5 7.82843 8.5 7C8.5 6.17157 7.82843 5.5 7 5.5ZM0 12.5C0 11.6716 0.671573 11 1.5 11C2.32843 11 3 11.6716 3 12.5C3 13.3284 2.32843 14 1.5 14C0.671573 14 0 13.3284 0 12.5ZM7 11C6.17157 11 5.5 11.6716 5.5 12.5C5.5 13.3284 6.17157 14 7 14C7.82843 14 8.5 13.3284 8.5 12.5C8.5 11.6716 7.82843 11 7 11Z" fill="#101828"/>
</svg>
