<svg viewBox="0 0 24 24" xmlns="http://www.w3.org/2000/svg"><path d="M9 8V5.2c0-1.2.02-1.49.1-1.66 .09-.19.24-.35.43-.44 .16-.09.45-.11 1.65-.11h7.6c1.19 0 1.48.02 1.65.1 .18.09.34.24.43.43 .08.16.1.45.1 1.65v7.6c0 1.19-.03 1.48-.11 1.65 -.1.18-.25.34-.44.43 -.17.08-.46.1-1.66.1h-2.8c-.56 0-1 .44-1 1 0 .55.44 1 1 1h2.8c1.6 0 1.98-.04 2.56-.33 .56-.29 1.02-.75 1.31-1.32 .29-.59.32-.97.32-2.57v-7.6c0-1.61-.04-1.99-.33-2.57 -.29-.57-.75-1.03-1.32-1.32 -.59-.3-.97-.33-2.57-.33h-7.6c-1.61 0-1.99.03-2.57.32 -.57.28-1.03.74-1.32 1.31 -.3.58-.33.96-.33 2.56v2.8c0 .55.44 1 1 1 .55 0 1-.45 1-1ZM5.2 23h7.6c1.6 0 1.98-.04 2.56-.33 .56-.29 1.02-.75 1.31-1.32 .29-.59.32-.97.32-2.57v-7.6c0-1.61-.04-1.99-.33-2.57 -.29-.57-.75-1.03-1.32-1.32 -.59-.3-.97-.33-2.57-.33h-7.6c-1.61 0-1.99.03-2.57.32 -.57.28-1.03.74-1.32 1.31 -.3.58-.33.96-.33 2.56v7.6c0 1.6.03 1.98.32 2.56 .28.56.74 1.02 1.31 1.31 .58.29.96.32 2.56.32Zm0-2c-1.2 0-1.49-.03-1.66-.11 -.19-.1-.35-.25-.44-.44 -.09-.17-.11-.46-.11-1.66v-7.6c0-1.2.02-1.49.1-1.66 .09-.19.24-.35.43-.44 .16-.09.45-.11 1.65-.11h7.6c1.19 0 1.48.02 1.65.1 .18.09.34.24.43.43 .08.16.1.45.1 1.65v7.6c0 1.19-.03 1.48-.11 1.65 -.1.18-.25.34-.44.43 -.17.08-.46.1-1.66.1h-7.6Z"/></svg>