<svg viewBox="0 0 24 24" xmlns="http://www.w3.org/2000/svg"><path d="M10.99 8.99v4c0 .55.44 1 1 1 .55 0 1-.45 1-1V8.98c0-.56-.45-1-1-1 -.56 0-1 .44-1 1Zm1 9H12c.55 0 1-.45 1-1 0-.56-.45-1-1-1h-.01c-.56 0-1 .44-1 1 0 .55.44 1 1 1ZM9.73 3.38L1.5 17.58c-.73 1.25-.85 1.5-.78 2.11 .05.56.35 1.07.81 1.41 .49.35.76.38 2.21.38h16.44c1.44 0 1.72-.03 2.21-.39 .45-.34.75-.85.81-1.42 .06-.61-.06-.86-.78-2.12L14.19 3.34c-.73-1.25-.89-1.48-1.44-1.73 -.52-.24-1.11-.24-1.63 0 -.56.24-.72.47-1.44 1.72Zm1.73 1c.41-.72.55-.92.51-.9 0-.01 0-.01 0-.01 -.04-.02.1.18.51.89l8.22 14.2c.41.71.51.93.52.9 0-.01-.01-.01-.01 0 .03-.03-.22-.01-1.05-.01H3.71c-.83 0-1.08-.03-1.05 0 -.01-.01-.01-.01-.01-.01 0 .03.1-.19.52-.91l8.22-14.21Z"/></svg>