<svg viewBox="0 0 13 12" fill="none" xmlns="http://www.w3.org/2000/svg">
<g clip-path="url(#clip0_879_78434)">
<path d="M8.25002 3.75L10 2M11 1L10 2L11 1ZM6.19502 5.805C6.45319 6.05973 6.65842 6.36302 6.79889 6.6974C6.93937 7.03177 7.01231 7.39063 7.01353 7.75332C7.01474 8.116 6.9442 8.47534 6.80597 8.81065C6.66774 9.14596 6.46455 9.45061 6.20809 9.70707C5.95163 9.96353 5.64698 10.1667 5.31167 10.305C4.97636 10.4432 4.61701 10.5137 4.25433 10.5125C3.89165 10.5113 3.53279 10.4384 3.19841 10.2979C2.86403 10.1574 2.56075 9.95217 2.30602 9.694C1.80508 9.17534 1.5279 8.48069 1.53416 7.75965C1.54043 7.03861 1.82964 6.34887 2.33951 5.839C2.84939 5.32913 3.53912 5.03991 4.26016 5.03365C4.9812 5.02738 5.67586 5.30457 6.19452 5.8055L6.19502 5.805ZM6.19502 5.805L8.25002 3.75L6.19502 5.805ZM8.25002 3.75L9.75002 5.25L11.5 3.5L10 2L8.25002 3.75Z" stroke="currentColor" stroke-width="2" stroke-linecap="round" stroke-linejoin="round"/>
</g>
<defs>
<clipPath id="clip0_879_78434">
<rect width="12" height="12" fill="white" transform="translate(0.5)"/>
</clipPath>
</defs>
</svg>
