<svg viewBox="0 0 24 24" xmlns="http://www.w3.org/2000/svg"><path d="M11.29 2.7l3.6 3.6c.51.51 1.38.32 1.64-.36 .8-2.12 2.09-2.45 3.02-1.52 .93.93.6 2.21-1.52 3.02 -.68.25-.87 1.12-.36 1.64l3.6 3.6v-1.42l-3.6 3.6 1.64.35c-1.31-3.44-4.32-4.2-6.31-2.22 -1.99 1.98-1.23 4.99 2.21 6.3l-.36-1.65 -3.6 3.6h1.41l-3.6-3.6c-.52-.52-1.39-.33-1.65.35 -.81 2.11-2.1 2.44-3.03 1.51 -.94-.94-.61-2.22 1.51-3.03 .67-.26.86-1.13.35-1.65l-3.6-3.6v1.41l3.6-3.6 -1.65-.36c1.3 3.43 4.31 4.19 6.3 2.21 1.98-1.99 1.22-5-2.22-6.31l.35 1.64 3.6-3.6H11.2Zm1.41-1.42c-.4-.4-1.03-.4-1.42 0l-3.6 3.6c-.52.51-.33 1.38.35 1.64 2.11.8 2.44 2.09 1.51 3.02 -.94.93-2.22.6-3.03-1.52 -.26-.68-1.13-.87-1.65-.36l-3.6 3.6c-.4.39-.4 1.02 0 1.41l3.6 3.6 .35-1.65c-3.44 1.3-4.2 4.31-2.22 6.3 1.98 1.98 4.99 1.22 6.3-2.22l-1.65.35 3.6 3.6c.39.39 1.02.39 1.41 0l3.6-3.6c.51-.52.32-1.39-.36-1.65 -2.12-.81-2.45-2.1-1.52-3.03 .93-.94 2.21-.61 3.02 1.51 .25.67 1.12.86 1.64.35l3.6-3.6c.39-.4.39-1.03 0-1.42l-3.6-3.6 -.36 1.64c3.43-1.31 4.19-4.32 2.21-6.31 -1.99-1.99-5-1.23-6.31 2.21l1.64-.36 -3.6-3.6Z"/></svg>