<svg viewBox="0 0 24 24" xmlns="http://www.w3.org/2000/svg"><path fill="none" stroke="#000" stroke-linecap="round" stroke-linejoin="round" stroke-width="2" d="M6 6l4.5 4.5M6 6H3L2 3l1-1 3 1v3Zm13.259-3.26l-2.63 2.62c-.4.39-.6.59-.67.82 -.07.2-.07.41 0 .61 .07.22.27.42.66.82l.23.23c.39.39.59.59.82.66 .2.06.41.06.61 0 .22-.08.42-.28.82-.67l2.45-2.46c.26.64.41 1.34.41 2.08 0 3.03-2.47 5.5-5.5 5.5 -.37 0-.73-.04-1.08-.11 -.49-.1-.73-.15-.88-.13 -.16.01-.24.03-.38.11 -.14.06-.27.2-.53.46L6.43 20.43c-.83.82-2.18.82-3 0 -.83-.83-.83-2.18 0-3l7.157-7.157c.26-.27.39-.4.46-.53 .07-.14.09-.22.11-.38 .01-.15-.04-.4-.13-.88 -.07-.35-.11-.71-.11-1.08 0-3.04 2.46-5.5 5.5-5.5 1 0 1.94.26 2.75.74Zm-7.26 12.25l5.49 5.5c.82.82 2.17.82 3 0 .82-.83.82-2.18 0-3l-4.53-4.53c-.33-.04-.64-.09-.94-.18 -.39-.11-.82-.03-1.11.25l-1.94 1.93Z"/></svg>