<svg width="14" height="16" viewBox="0 0 14 16" fill="none" xmlns="http://www.w3.org/2000/svg">
<path fill-rule="evenodd" clip-rule="evenodd" d="M7 1.5C6.5346 1.49986 6.0806 1.64404 5.70056 1.91269C5.32052 2.18133 5.03313 2.56121 4.878 3H9.122C8.96674 2.56129 8.67932 2.18149 8.29931 1.91287C7.9193 1.64425 7.46537 1.50001 7 1.5ZM7 0C6.13556 1.17579e-05 5.29766 0.298594 4.62801 0.845246C3.95836 1.3919 3.49807 2.15306 3.325 3H0V4.5H1.27L2.088 13.497C2.15014 14.1805 2.46559 14.816 2.97239 15.2788C3.47919 15.7415 4.14071 15.9981 4.827 15.998H9.174C9.85996 15.9978 10.5211 15.7413 11.0277 15.2788C11.5342 14.8163 11.8496 14.1811 11.912 13.498L12.73 4.5H14V3H10.675C10.5019 2.15306 10.0416 1.3919 9.37199 0.845246C8.70234 0.298594 7.86444 1.17579e-05 7 0ZM11.224 4.5H2.776L3.582 13.361C3.6102 13.6717 3.75357 13.9606 3.98394 14.171C4.21431 14.3814 4.51502 14.498 4.827 14.498H9.174C9.48598 14.498 9.78669 14.3814 10.0171 14.171C10.2474 13.9606 10.3908 13.6717 10.419 13.361L11.224 4.5Z" fill="#B80F38"/>
</svg>
