<svg viewBox="0 0 24 24" xmlns="http://www.w3.org/2000/svg"><path fill-rule="evenodd" d="M2.29 2.29c.39-.4 1.02-.4 1.41 0 6 6 11.99 11.99 17.99 18 .39.39.39 1.02 0 1.41 -.4.39-1.03.39-1.42 0l-3.16-3.16c-1.45.84-3.17 1.44-5.14 1.44 -2.87 0-5.2-1.27-6.93-2.71 -1.73-1.45-2.91-3.11-3.51-4.05l-.03-.04c-.12-.19-.28-.43-.35-.77 -.07-.28-.07-.63 0-.9 .07-.34.23-.58.34-.77l.02-.04c.6-.96 1.82-2.68 3.62-4.15L2.22 3.64c-.4-.4-.4-1.03 0-1.42Zm6.26 7.67c-.36.59-.56 1.29-.56 2.03 0 2.2 1.79 4 4 4 .74 0 1.43-.21 2.03-.56l-1.52-1.52c-.17.04-.34.06-.52.06 -1.11 0-2-.9-2-2 0-.18.02-.36.06-.52L8.52 9.93Z"/><path d="M15.99 11.74c-.13-2.01-1.74-3.62-3.75-3.75L8.78 4.53c.97-.35 2.05-.55 3.2-.55 2.86 0 5.19 1.26 6.92 2.7 1.72 1.44 2.9 3.1 3.5 4.04l.02.03c.11.18.27.42.34.76 .06.27.06.62 0 .89 -.08.33-.23.57-.35.76l-.03.03c-.43.67-1.15 1.71-2.16 2.77l-4.28-4.28Z"/></svg>