<svg viewBox="0 0 24 24" fill="none" xmlns="http://www.w3.org/2000/svg">
<path d="M14 10H8C7.44 10 7 10.44 7 11C7 11.55 7.44 12 8 12H14C14.55 12 15 11.55 15 11C15 10.44 14.55 10 14 10ZM10 14H8C7.44 14 7 14.44 7 15C7 15.55 7.44 16 8 16H10C10.55 16 11 15.55 11 15C11 14.44 10.55 14 10 14ZM16 6H8C7.44 6 7 6.44 7 7C7 7.55 7.44 8 8 8H16C16.55 8 17 7.55 17 7C17 6.44 16.55 6 16 6ZM19 6.8V17.2C19 19.09 18.96 19.55 18.78 19.9C18.58 20.27 18.28 20.58 17.9 20.77C17.54 20.95 17.09 20.98 15.19 20.98H8.79C6.89 20.98 6.43 20.94 6.08 20.76C5.7 20.56 5.39 20.26 5.2 19.88C5.01 19.52 4.98 19.07 4.98 17.17V6.77C4.98 4.87 5.01 4.41 5.19 4.06C5.38 3.68 5.68 3.37 6.06 3.18C6.41 2.99 6.86 2.96 8.76 2.96H15.16C17.05 2.96 17.51 2.99 17.86 3.17C18.23 3.36 18.54 3.66 18.73 4.04C18.91 4.39 18.94 4.84 18.94 6.74L19 6.8ZM21 6.8C21 4.49 20.95 3.95 20.56 3.18C20.17 2.42 19.56 1.81 18.81 1.43C18.04 1.03 17.49 0.989998 15.19 0.989998H8.79C6.48 0.989998 5.94 1.03 5.17 1.42C4.41 1.8 3.8 2.41 3.42 3.16C3.02 3.92 2.98 4.47 2.98 6.77V17.17C2.98 19.47 3.02 20.01 3.41 20.78C3.79 21.53 4.4 22.14 5.15 22.52C5.91 22.91 6.46 22.95 8.76 22.95H15.16C17.46 22.95 18 22.9 18.77 22.51C19.52 22.12 20.13 21.51 20.51 20.76C20.9 19.99 20.94 19.44 20.94 17.14V6.74L21 6.8Z" fill="#475467"/>
</svg>
