<svg width="32" height="32" viewBox="0 0 32 32" fill="none" xmlns="http://www.w3.org/2000/svg">
<path fill-rule="evenodd" clip-rule="evenodd" d="M9.625 9.5H19.375C19.444 9.5 19.5 9.556 19.5 9.625V19.375C19.5 19.4082 19.4868 19.4399 19.4634 19.4634C19.4399 19.4868 19.4082 19.5 19.375 19.5H9.625C9.59185 19.5 9.56005 19.4868 9.53661 19.4634C9.51317 19.4399 9.5 19.4082 9.5 19.375V9.625C9.5 9.556 9.556 9.5 9.625 9.5ZM8 9.625C8 8.728 8.728 8 9.625 8H19.375C20.273 8 21 8.728 21 9.625V19.375C21 20.273 20.273 21 19.375 21H9.625C9.19402 21 8.7807 20.8288 8.47595 20.524C8.17121 20.2193 8 19.806 8 19.375V9.625ZM22.5 21.281V12.281H24V21.281C24 22.8 22.77 24 21.251 24H10.25V22.5H21.251C21.941 22.5 22.5 21.972 22.5 21.281Z" fill="#1E1E1E"/>
</svg>
